<?xml version="1.0" encoding="utf-8" standalone="no"?>
<!DOCTYPE svg PUBLIC "-//W3C//DTD SVG 1.1//EN"
  "http://www.w3.org/Graphics/SVG/1.1/DTD/svg11.dtd">
<!-- Created with matplotlib (http://matplotlib.org/) -->
<svg height="313pt" version="1.1" viewBox="0 0 599 313" width="599pt" xmlns="http://www.w3.org/2000/svg" xmlns:xlink="http://www.w3.org/1999/xlink">
 <defs>
  <style type="text/css">
*{stroke-linecap:butt;stroke-linejoin:round;}
  </style>
 </defs>
 <g id="figure_1">
  <g id="patch_1">
   <path d="
M0 313.2
L599.4 313.2
L599.4 0
L0 0
z
" style="fill:#ffffff;"/>
  </g>
  <g id="axes_1">
   <g id="patch_2">
    <path d="
M74.925 281.88
L539.46 281.88
L539.46 31.32
L74.925 31.32
z
" style="fill:#ffffff;"/>
   </g>
   <g id="patch_3">
    <path clip-path="url(#p6f64557bc5)" d="
M74.925 281.88
L136.863 281.88
L136.863 198.622
L74.925 198.622
z
" style="fill:url(#h9782ebb09d);stroke:#000000;"/>
   </g>
   <g id="patch_4">
    <path clip-path="url(#p6f64557bc5)" d="
M229.77 281.88
L291.708 281.88
L291.708 167.267
L229.77 167.267
z
" style="fill:url(#h9782ebb09d);stroke:#000000;"/>
   </g>
   <g id="patch_5">
    <path clip-path="url(#p6f64557bc5)" d="
M384.615 281.88
L446.553 281.88
L446.553 90.6669
L384.615 90.6669
z
" style="fill:url(#h9782ebb09d);stroke:#000000;"/>
   </g>
   <g id="patch_6">
    <path clip-path="url(#p6f64557bc5)" d="
M136.863 281.88
L198.801 281.88
L198.801 229.413
L136.863 229.413
z
" style="fill:url(#h2d0691dd9f);stroke:#000000;"/>
   </g>
   <g id="patch_7">
    <path clip-path="url(#p6f64557bc5)" d="
M291.708 281.88
L353.646 281.88
L353.646 199.553
L291.708 199.553
z
" style="fill:url(#h2d0691dd9f);stroke:#000000;"/>
   </g>
   <g id="patch_8">
    <path clip-path="url(#p6f64557bc5)" d="
M446.553 281.88
L508.491 281.88
L508.491 132.403
L446.553 132.403
z
" style="fill:url(#h2d0691dd9f);stroke:#000000;"/>
   </g>
   <g id="matplotlib.axis_1">
    <g id="xtick_1">
     <g id="line2d_1">
      <defs>
       <path d="
M0 0
L0 -4" id="m93b0483c22" style="stroke:#000000;stroke-width:0.5;"/>
      </defs>
      <g>
       <use style="stroke:#000000;stroke-width:0.5;" x="158.5413" xlink:href="#m93b0483c22" y="281.88"/>
      </g>
     </g>
     <g id="text_1">
      <!-- (a) column layout -->
      <defs>
       <path id="BitstreamVeraSans-Roman-20"/>
       <path d="
M8.01562 75.875
L15.8281 75.875
Q23.1406 64.3594 26.7812 53.3125
Q30.4219 42.2812 30.4219 31.3906
Q30.4219 20.4531 26.7812 9.375
Q23.1406 -1.70312 15.8281 -13.1875
L8.01562 -13.1875
Q14.5 -2 17.7031 9.0625
Q20.9062 20.125 20.9062 31.3906
Q20.9062 42.6719 17.7031 53.6562
Q14.5 64.6562 8.01562 75.875" id="BitstreamVeraSans-Roman-29"/>
       <path d="
M31 75.875
Q24.4688 64.6562 21.2812 53.6562
Q18.1094 42.6719 18.1094 31.3906
Q18.1094 20.125 21.3125 9.0625
Q24.5156 -2 31 -13.1875
L23.1875 -13.1875
Q15.875 -1.70312 12.2344 9.375
Q8.59375 20.4531 8.59375 31.3906
Q8.59375 42.2812 12.2031 53.3125
Q15.8281 64.3594 23.1875 75.875
z
" id="BitstreamVeraSans-Roman-28"/>
       <path d="
M30.6094 48.3906
Q23.3906 48.3906 19.1875 42.75
Q14.9844 37.1094 14.9844 27.2969
Q14.9844 17.4844 19.1562 11.8438
Q23.3438 6.20312 30.6094 6.20312
Q37.7969 6.20312 41.9844 11.8594
Q46.1875 17.5312 46.1875 27.2969
Q46.1875 37.0156 41.9844 42.7031
Q37.7969 48.3906 30.6094 48.3906
M30.6094 56
Q42.3281 56 49.0156 48.375
Q55.7188 40.7656 55.7188 27.2969
Q55.7188 13.875 49.0156 6.21875
Q42.3281 -1.42188 30.6094 -1.42188
Q18.8438 -1.42188 12.1719 6.21875
Q5.51562 13.875 5.51562 27.2969
Q5.51562 40.7656 12.1719 48.375
Q18.8438 56 30.6094 56" id="BitstreamVeraSans-Roman-6f"/>
       <path d="
M9.42188 75.9844
L18.4062 75.9844
L18.4062 0
L9.42188 0
z
" id="BitstreamVeraSans-Roman-6c"/>
       <path d="
M54.8906 33.0156
L54.8906 0
L45.9062 0
L45.9062 32.7188
Q45.9062 40.4844 42.875 44.3281
Q39.8438 48.1875 33.7969 48.1875
Q26.5156 48.1875 22.3125 43.5469
Q18.1094 38.9219 18.1094 30.9062
L18.1094 0
L9.07812 0
L9.07812 54.6875
L18.1094 54.6875
L18.1094 46.1875
Q21.3438 51.125 25.7031 53.5625
Q30.0781 56 35.7969 56
Q45.2188 56 50.0469 50.1719
Q54.8906 44.3438 54.8906 33.0156" id="BitstreamVeraSans-Roman-6e"/>
       <path d="
M32.1719 -5.07812
Q28.375 -14.8438 24.75 -17.8125
Q21.1406 -20.7969 15.0938 -20.7969
L7.90625 -20.7969
L7.90625 -13.2812
L13.1875 -13.2812
Q16.8906 -13.2812 18.9375 -11.5156
Q21 -9.76562 23.4844 -3.21875
L25.0938 0.875
L2.98438 54.6875
L12.5 54.6875
L29.5938 11.9219
L46.6875 54.6875
L56.2031 54.6875
z
" id="BitstreamVeraSans-Roman-79"/>
       <path d="
M52 44.1875
Q55.375 50.25 60.0625 53.125
Q64.75 56 71.0938 56
Q79.6406 56 84.2812 50.0156
Q88.9219 44.0469 88.9219 33.0156
L88.9219 0
L79.8906 0
L79.8906 32.7188
Q79.8906 40.5781 77.0938 44.375
Q74.3125 48.1875 68.6094 48.1875
Q61.625 48.1875 57.5625 43.5469
Q53.5156 38.9219 53.5156 30.9062
L53.5156 0
L44.4844 0
L44.4844 32.7188
Q44.4844 40.625 41.7031 44.4062
Q38.9219 48.1875 33.1094 48.1875
Q26.2188 48.1875 22.1562 43.5312
Q18.1094 38.875 18.1094 30.9062
L18.1094 0
L9.07812 0
L9.07812 54.6875
L18.1094 54.6875
L18.1094 46.1875
Q21.1875 51.2188 25.4844 53.6094
Q29.7812 56 35.6875 56
Q41.6562 56 45.8281 52.9688
Q50 49.9531 52 44.1875" id="BitstreamVeraSans-Roman-6d"/>
       <path d="
M18.3125 70.2188
L18.3125 54.6875
L36.8125 54.6875
L36.8125 47.7031
L18.3125 47.7031
L18.3125 18.0156
Q18.3125 11.3281 20.1406 9.42188
Q21.9688 7.51562 27.5938 7.51562
L36.8125 7.51562
L36.8125 0
L27.5938 0
Q17.1875 0 13.2344 3.875
Q9.28125 7.76562 9.28125 18.0156
L9.28125 47.7031
L2.6875 47.7031
L2.6875 54.6875
L9.28125 54.6875
L9.28125 70.2188
z
" id="BitstreamVeraSans-Roman-74"/>
       <path d="
M8.5 21.5781
L8.5 54.6875
L17.4844 54.6875
L17.4844 21.9219
Q17.4844 14.1562 20.5 10.2656
Q23.5312 6.39062 29.5938 6.39062
Q36.8594 6.39062 41.0781 11.0312
Q45.3125 15.6719 45.3125 23.6875
L45.3125 54.6875
L54.2969 54.6875
L54.2969 0
L45.3125 0
L45.3125 8.40625
Q42.0469 3.42188 37.7188 1
Q33.4062 -1.42188 27.6875 -1.42188
Q18.2656 -1.42188 13.375 4.4375
Q8.5 10.2969 8.5 21.5781" id="BitstreamVeraSans-Roman-75"/>
       <path d="
M34.2812 27.4844
Q23.3906 27.4844 19.1875 25
Q14.9844 22.5156 14.9844 16.5
Q14.9844 11.7188 18.1406 8.90625
Q21.2969 6.10938 26.7031 6.10938
Q34.1875 6.10938 38.7031 11.4062
Q43.2188 16.7031 43.2188 25.4844
L43.2188 27.4844
z

M52.2031 31.2031
L52.2031 0
L43.2188 0
L43.2188 8.29688
Q40.1406 3.32812 35.5469 0.953125
Q30.9531 -1.42188 24.3125 -1.42188
Q15.9219 -1.42188 10.9531 3.29688
Q6 8.01562 6 15.9219
Q6 25.1406 12.1719 29.8281
Q18.3594 34.5156 30.6094 34.5156
L43.2188 34.5156
L43.2188 35.4062
Q43.2188 41.6094 39.1406 45
Q35.0625 48.3906 27.6875 48.3906
Q23 48.3906 18.5469 47.2656
Q14.1094 46.1406 10.0156 43.8906
L10.0156 52.2031
Q14.9375 54.1094 19.5781 55.0469
Q24.2188 56 28.6094 56
Q40.4844 56 46.3438 49.8438
Q52.2031 43.7031 52.2031 31.2031" id="BitstreamVeraSans-Roman-61"/>
       <path d="
M48.7812 52.5938
L48.7812 44.1875
Q44.9688 46.2969 41.1406 47.3438
Q37.3125 48.3906 33.4062 48.3906
Q24.6562 48.3906 19.8125 42.8438
Q14.9844 37.3125 14.9844 27.2969
Q14.9844 17.2812 19.8125 11.7344
Q24.6562 6.20312 33.4062 6.20312
Q37.3125 6.20312 41.1406 7.25
Q44.9688 8.29688 48.7812 10.4062
L48.7812 2.09375
Q45.0156 0.34375 40.9844 -0.53125
Q36.9688 -1.42188 32.4219 -1.42188
Q20.0625 -1.42188 12.7812 6.34375
Q5.51562 14.1094 5.51562 27.2969
Q5.51562 40.6719 12.8594 48.3281
Q20.2188 56 33.0156 56
Q37.1562 56 41.1094 55.1406
Q45.0625 54.2969 48.7812 52.5938" id="BitstreamVeraSans-Roman-63"/>
      </defs>
      <g transform="translate(105.7047375 294.998125)scale(0.12 -0.12)">
       <use xlink:href="#BitstreamVeraSans-Roman-28"/>
       <use x="39.013671875" xlink:href="#BitstreamVeraSans-Roman-61"/>
       <use x="100.29296875" xlink:href="#BitstreamVeraSans-Roman-29"/>
       <use x="139.306640625" xlink:href="#BitstreamVeraSans-Roman-20"/>
       <use x="171.09375" xlink:href="#BitstreamVeraSans-Roman-63"/>
       <use x="226.07421875" xlink:href="#BitstreamVeraSans-Roman-6f"/>
       <use x="287.255859375" xlink:href="#BitstreamVeraSans-Roman-6c"/>
       <use x="315.0390625" xlink:href="#BitstreamVeraSans-Roman-75"/>
       <use x="378.41796875" xlink:href="#BitstreamVeraSans-Roman-6d"/>
       <use x="475.830078125" xlink:href="#BitstreamVeraSans-Roman-6e"/>
       <use x="539.208984375" xlink:href="#BitstreamVeraSans-Roman-20"/>
       <use x="570.99609375" xlink:href="#BitstreamVeraSans-Roman-6c"/>
       <use x="598.779296875" xlink:href="#BitstreamVeraSans-Roman-61"/>
       <use x="660.05859375" xlink:href="#BitstreamVeraSans-Roman-79"/>
       <use x="719.23828125" xlink:href="#BitstreamVeraSans-Roman-6f"/>
       <use x="780.419921875" xlink:href="#BitstreamVeraSans-Roman-75"/>
       <use x="843.798828125" xlink:href="#BitstreamVeraSans-Roman-74"/>
      </g>
     </g>
    </g>
    <g id="xtick_2">
     <g id="line2d_2">
      <g>
       <use style="stroke:#000000;stroke-width:0.5;" x="313.3863" xlink:href="#m93b0483c22" y="281.88"/>
      </g>
     </g>
     <g id="text_2">
      <!-- (b) row layout  -->
      <defs>
       <path d="
M4.20312 54.6875
L13.1875 54.6875
L24.4219 12.0156
L35.5938 54.6875
L46.1875 54.6875
L57.4219 12.0156
L68.6094 54.6875
L77.5938 54.6875
L63.2812 0
L52.6875 0
L40.9219 44.8281
L29.1094 0
L18.5 0
z
" id="BitstreamVeraSans-Roman-77"/>
       <path d="
M41.1094 46.2969
Q39.5938 47.1719 37.8125 47.5781
Q36.0312 48 33.8906 48
Q26.2656 48 22.1875 43.0469
Q18.1094 38.0938 18.1094 28.8125
L18.1094 0
L9.07812 0
L9.07812 54.6875
L18.1094 54.6875
L18.1094 46.1875
Q20.9531 51.1719 25.4844 53.5781
Q30.0312 56 36.5312 56
Q37.4531 56 38.5781 55.875
Q39.7031 55.7656 41.0625 55.5156
z
" id="BitstreamVeraSans-Roman-72"/>
       <path d="
M48.6875 27.2969
Q48.6875 37.2031 44.6094 42.8438
Q40.5312 48.4844 33.4062 48.4844
Q26.2656 48.4844 22.1875 42.8438
Q18.1094 37.2031 18.1094 27.2969
Q18.1094 17.3906 22.1875 11.75
Q26.2656 6.10938 33.4062 6.10938
Q40.5312 6.10938 44.6094 11.75
Q48.6875 17.3906 48.6875 27.2969
M18.1094 46.3906
Q20.9531 51.2656 25.2656 53.625
Q29.5938 56 35.5938 56
Q45.5625 56 51.7812 48.0938
Q58.0156 40.1875 58.0156 27.2969
Q58.0156 14.4062 51.7812 6.48438
Q45.5625 -1.42188 35.5938 -1.42188
Q29.5938 -1.42188 25.2656 0.953125
Q20.9531 3.32812 18.1094 8.20312
L18.1094 0
L9.07812 0
L9.07812 75.9844
L18.1094 75.9844
z
" id="BitstreamVeraSans-Roman-62"/>
      </defs>
      <g transform="translate(271.594425 294.998125)scale(0.12 -0.12)">
       <use xlink:href="#BitstreamVeraSans-Roman-28"/>
       <use x="39.013671875" xlink:href="#BitstreamVeraSans-Roman-62"/>
       <use x="102.490234375" xlink:href="#BitstreamVeraSans-Roman-29"/>
       <use x="141.50390625" xlink:href="#BitstreamVeraSans-Roman-20"/>
       <use x="173.291015625" xlink:href="#BitstreamVeraSans-Roman-72"/>
       <use x="212.154296875" xlink:href="#BitstreamVeraSans-Roman-6f"/>
       <use x="273.3359375" xlink:href="#BitstreamVeraSans-Roman-77"/>
       <use x="355.123046875" xlink:href="#BitstreamVeraSans-Roman-20"/>
       <use x="386.91015625" xlink:href="#BitstreamVeraSans-Roman-6c"/>
       <use x="414.693359375" xlink:href="#BitstreamVeraSans-Roman-61"/>
       <use x="475.97265625" xlink:href="#BitstreamVeraSans-Roman-79"/>
       <use x="535.15234375" xlink:href="#BitstreamVeraSans-Roman-6f"/>
       <use x="596.333984375" xlink:href="#BitstreamVeraSans-Roman-75"/>
       <use x="659.712890625" xlink:href="#BitstreamVeraSans-Roman-74"/>
       <use x="698.921875" xlink:href="#BitstreamVeraSans-Roman-20"/>
      </g>
      <!--  (obj. size 32B) -->
      <defs>
       <path d="
M19.1875 8.29688
L53.6094 8.29688
L53.6094 0
L7.32812 0
L7.32812 8.29688
Q12.9375 14.1094 22.625 23.8906
Q32.3281 33.6875 34.8125 36.5312
Q39.5469 41.8438 41.4219 45.5312
Q43.3125 49.2188 43.3125 52.7812
Q43.3125 58.5938 39.2344 62.25
Q35.1562 65.9219 28.6094 65.9219
Q23.9688 65.9219 18.8125 64.3125
Q13.6719 62.7031 7.8125 59.4219
L7.8125 69.3906
Q13.7656 71.7812 18.9375 73
Q24.125 74.2188 28.4219 74.2188
Q39.75 74.2188 46.4844 68.5469
Q53.2188 62.8906 53.2188 53.4219
Q53.2188 48.9219 51.5312 44.8906
Q49.8594 40.875 45.4062 35.4062
Q44.1875 33.9844 37.6406 27.2188
Q31.1094 20.4531 19.1875 8.29688" id="BitstreamVeraSans-Roman-32"/>
       <path d="
M40.5781 39.3125
Q47.6562 37.7969 51.625 33
Q55.6094 28.2188 55.6094 21.1875
Q55.6094 10.4062 48.1875 4.48438
Q40.7656 -1.42188 27.0938 -1.42188
Q22.5156 -1.42188 17.6562 -0.515625
Q12.7969 0.390625 7.625 2.20312
L7.625 11.7188
Q11.7188 9.32812 16.5938 8.10938
Q21.4844 6.89062 26.8125 6.89062
Q36.0781 6.89062 40.9375 10.5469
Q45.7969 14.2031 45.7969 21.1875
Q45.7969 27.6406 41.2812 31.2656
Q36.7656 34.9062 28.7188 34.9062
L20.2188 34.9062
L20.2188 43.0156
L29.1094 43.0156
Q36.375 43.0156 40.2344 45.9219
Q44.0938 48.8281 44.0938 54.2969
Q44.0938 59.9062 40.1094 62.9062
Q36.1406 65.9219 28.7188 65.9219
Q24.6562 65.9219 20.0156 65.0312
Q15.375 64.1562 9.8125 62.3125
L9.8125 71.0938
Q15.4375 72.6562 20.3438 73.4375
Q25.25 74.2188 29.5938 74.2188
Q40.8281 74.2188 47.3594 69.1094
Q53.9062 64.0156 53.9062 55.3281
Q53.9062 49.2656 50.4375 45.0938
Q46.9688 40.9219 40.5781 39.3125" id="BitstreamVeraSans-Roman-33"/>
       <path d="
M9.42188 54.6875
L18.4062 54.6875
L18.4062 -0.984375
Q18.4062 -11.4219 14.4219 -16.1094
Q10.4531 -20.7969 1.60938 -20.7969
L-1.8125 -20.7969
L-1.8125 -13.1875
L0.59375 -13.1875
Q5.71875 -13.1875 7.5625 -10.8125
Q9.42188 -8.45312 9.42188 -0.984375
z

M9.42188 75.9844
L18.4062 75.9844
L18.4062 64.5938
L9.42188 64.5938
z
" id="BitstreamVeraSans-Roman-6a"/>
       <path d="
M5.51562 54.6875
L48.1875 54.6875
L48.1875 46.4844
L14.4062 7.17188
L48.1875 7.17188
L48.1875 0
L4.29688 0
L4.29688 8.20312
L38.0938 47.5156
L5.51562 47.5156
z
" id="BitstreamVeraSans-Roman-7a"/>
       <path d="
M10.6875 12.4062
L21 12.4062
L21 0
L10.6875 0
z
" id="BitstreamVeraSans-Roman-2e"/>
       <path d="
M19.6719 34.8125
L19.6719 8.10938
L35.5 8.10938
Q43.4531 8.10938 47.2812 11.4062
Q51.125 14.7031 51.125 21.4844
Q51.125 28.3281 47.2812 31.5625
Q43.4531 34.8125 35.5 34.8125
z

M19.6719 64.7969
L19.6719 42.8281
L34.2812 42.8281
Q41.5 42.8281 45.0312 45.5312
Q48.5781 48.25 48.5781 53.8125
Q48.5781 59.3281 45.0312 62.0625
Q41.5 64.7969 34.2812 64.7969
z

M9.8125 72.9062
L35.0156 72.9062
Q46.2969 72.9062 52.3906 68.2188
Q58.5 63.5312 58.5 54.8906
Q58.5 48.1875 55.375 44.2344
Q52.25 40.2812 46.1875 39.3125
Q53.4688 37.75 57.5 32.7812
Q61.5312 27.8281 61.5312 20.4062
Q61.5312 10.6406 54.8906 5.3125
Q48.25 0 35.9844 0
L9.8125 0
z
" id="BitstreamVeraSans-Roman-42"/>
       <path d="
M56.2031 29.5938
L56.2031 25.2031
L14.8906 25.2031
Q15.4844 15.9219 20.4844 11.0625
Q25.4844 6.20312 34.4219 6.20312
Q39.5938 6.20312 44.4531 7.46875
Q49.3125 8.73438 54.1094 11.2812
L54.1094 2.78125
Q49.2656 0.734375 44.1875 -0.34375
Q39.1094 -1.42188 33.8906 -1.42188
Q20.7969 -1.42188 13.1562 6.1875
Q5.51562 13.8125 5.51562 26.8125
Q5.51562 40.2344 12.7656 48.1094
Q20.0156 56 32.3281 56
Q43.3594 56 49.7812 48.8906
Q56.2031 41.7969 56.2031 29.5938
M47.2188 32.2344
Q47.125 39.5938 43.0938 43.9844
Q39.0625 48.3906 32.4219 48.3906
Q24.9062 48.3906 20.3906 44.1406
Q15.875 39.8906 15.1875 32.1719
z
" id="BitstreamVeraSans-Roman-65"/>
       <path d="
M9.42188 54.6875
L18.4062 54.6875
L18.4062 0
L9.42188 0
z

M9.42188 75.9844
L18.4062 75.9844
L18.4062 64.5938
L9.42188 64.5938
z
" id="BitstreamVeraSans-Roman-69"/>
       <path d="
M44.2812 53.0781
L44.2812 44.5781
Q40.4844 46.5312 36.375 47.5
Q32.2812 48.4844 27.875 48.4844
Q21.1875 48.4844 17.8438 46.4375
Q14.5 44.3906 14.5 40.2812
Q14.5 37.1562 16.8906 35.375
Q19.2812 33.5938 26.5156 31.9844
L29.5938 31.2969
Q39.1562 29.25 43.1875 25.5156
Q47.2188 21.7812 47.2188 15.0938
Q47.2188 7.46875 41.1875 3.01562
Q35.1562 -1.42188 24.6094 -1.42188
Q20.2188 -1.42188 15.4531 -0.5625
Q10.6875 0.296875 5.42188 2
L5.42188 11.2812
Q10.4062 8.6875 15.2344 7.39062
Q20.0625 6.10938 24.8125 6.10938
Q31.1562 6.10938 34.5625 8.28125
Q37.9844 10.4531 37.9844 14.4062
Q37.9844 18.0625 35.5156 20.0156
Q33.0625 21.9688 24.7031 23.7812
L21.5781 24.5156
Q13.2344 26.2656 9.51562 29.9062
Q5.8125 33.5469 5.8125 39.8906
Q5.8125 47.6094 11.2812 51.7969
Q16.75 56 26.8125 56
Q31.7812 56 36.1719 55.2656
Q40.5781 54.5469 44.2812 53.0781" id="BitstreamVeraSans-Roman-73"/>
      </defs>
      <g transform="translate(269.0603625 308.4355)scale(0.12 -0.12)">
       <use xlink:href="#BitstreamVeraSans-Roman-20"/>
       <use x="31.787109375" xlink:href="#BitstreamVeraSans-Roman-28"/>
       <use x="70.80078125" xlink:href="#BitstreamVeraSans-Roman-6f"/>
       <use x="131.982421875" xlink:href="#BitstreamVeraSans-Roman-62"/>
       <use x="195.458984375" xlink:href="#BitstreamVeraSans-Roman-6a"/>
       <use x="223.2421875" xlink:href="#BitstreamVeraSans-Roman-2e"/>
       <use x="255.029296875" xlink:href="#BitstreamVeraSans-Roman-20"/>
       <use x="286.81640625" xlink:href="#BitstreamVeraSans-Roman-73"/>
       <use x="338.916015625" xlink:href="#BitstreamVeraSans-Roman-69"/>
       <use x="366.69921875" xlink:href="#BitstreamVeraSans-Roman-7a"/>
       <use x="419.189453125" xlink:href="#BitstreamVeraSans-Roman-65"/>
       <use x="480.712890625" xlink:href="#BitstreamVeraSans-Roman-20"/>
       <use x="512.5" xlink:href="#BitstreamVeraSans-Roman-33"/>
       <use x="576.123046875" xlink:href="#BitstreamVeraSans-Roman-32"/>
       <use x="639.74609375" xlink:href="#BitstreamVeraSans-Roman-42"/>
       <use x="708.349609375" xlink:href="#BitstreamVeraSans-Roman-29"/>
      </g>
     </g>
    </g>
    <g id="xtick_3">
     <g id="line2d_3">
      <g>
       <use style="stroke:#000000;stroke-width:0.5;" x="468.2313" xlink:href="#m93b0483c22" y="281.88"/>
      </g>
     </g>
     <g id="text_3">
      <!-- (c) row layout  -->
      <g transform="translate(426.949425 294.998125)scale(0.12 -0.12)">
       <use xlink:href="#BitstreamVeraSans-Roman-28"/>
       <use x="39.013671875" xlink:href="#BitstreamVeraSans-Roman-63"/>
       <use x="93.994140625" xlink:href="#BitstreamVeraSans-Roman-29"/>
       <use x="133.0078125" xlink:href="#BitstreamVeraSans-Roman-20"/>
       <use x="164.794921875" xlink:href="#BitstreamVeraSans-Roman-72"/>
       <use x="203.658203125" xlink:href="#BitstreamVeraSans-Roman-6f"/>
       <use x="264.83984375" xlink:href="#BitstreamVeraSans-Roman-77"/>
       <use x="346.626953125" xlink:href="#BitstreamVeraSans-Roman-20"/>
       <use x="378.4140625" xlink:href="#BitstreamVeraSans-Roman-6c"/>
       <use x="406.197265625" xlink:href="#BitstreamVeraSans-Roman-61"/>
       <use x="467.4765625" xlink:href="#BitstreamVeraSans-Roman-79"/>
       <use x="526.65625" xlink:href="#BitstreamVeraSans-Roman-6f"/>
       <use x="587.837890625" xlink:href="#BitstreamVeraSans-Roman-75"/>
       <use x="651.216796875" xlink:href="#BitstreamVeraSans-Roman-74"/>
       <use x="690.42578125" xlink:href="#BitstreamVeraSans-Roman-20"/>
      </g>
      <!--  (obj. size 72B) -->
      <defs>
       <path d="
M8.20312 72.9062
L55.0781 72.9062
L55.0781 68.7031
L28.6094 0
L18.3125 0
L43.2188 64.5938
L8.20312 64.5938
z
" id="BitstreamVeraSans-Roman-37"/>
      </defs>
      <g transform="translate(423.9053625 308.4355)scale(0.12 -0.12)">
       <use xlink:href="#BitstreamVeraSans-Roman-20"/>
       <use x="31.787109375" xlink:href="#BitstreamVeraSans-Roman-28"/>
       <use x="70.80078125" xlink:href="#BitstreamVeraSans-Roman-6f"/>
       <use x="131.982421875" xlink:href="#BitstreamVeraSans-Roman-62"/>
       <use x="195.458984375" xlink:href="#BitstreamVeraSans-Roman-6a"/>
       <use x="223.2421875" xlink:href="#BitstreamVeraSans-Roman-2e"/>
       <use x="255.029296875" xlink:href="#BitstreamVeraSans-Roman-20"/>
       <use x="286.81640625" xlink:href="#BitstreamVeraSans-Roman-73"/>
       <use x="338.916015625" xlink:href="#BitstreamVeraSans-Roman-69"/>
       <use x="366.69921875" xlink:href="#BitstreamVeraSans-Roman-7a"/>
       <use x="419.189453125" xlink:href="#BitstreamVeraSans-Roman-65"/>
       <use x="480.712890625" xlink:href="#BitstreamVeraSans-Roman-20"/>
       <use x="512.5" xlink:href="#BitstreamVeraSans-Roman-37"/>
       <use x="576.123046875" xlink:href="#BitstreamVeraSans-Roman-32"/>
       <use x="639.74609375" xlink:href="#BitstreamVeraSans-Roman-42"/>
       <use x="708.349609375" xlink:href="#BitstreamVeraSans-Roman-29"/>
      </g>
     </g>
    </g>
   </g>
   <g id="matplotlib.axis_2">
    <g id="ytick_1">
     <g id="line2d_4">
      <defs>
       <path d="
M0 0
L4 0" id="m728421d6d4" style="stroke:#000000;stroke-width:0.5;"/>
      </defs>
      <g>
       <use style="stroke:#000000;stroke-width:0.5;" x="74.925" xlink:href="#m728421d6d4" y="246.085714286"/>
      </g>
     </g>
     <g id="line2d_5">
      <defs>
       <path d="
M0 0
L-4 0" id="mcb0005524f" style="stroke:#000000;stroke-width:0.5;"/>
      </defs>
      <g>
       <use style="stroke:#000000;stroke-width:0.5;" x="539.46" xlink:href="#mcb0005524f" y="246.085714286"/>
      </g>
     </g>
     <g id="text_4">
      <!-- 5 -->
      <defs>
       <path d="
M10.7969 72.9062
L49.5156 72.9062
L49.5156 64.5938
L19.8281 64.5938
L19.8281 46.7344
Q21.9688 47.4688 24.1094 47.8281
Q26.2656 48.1875 28.4219 48.1875
Q40.625 48.1875 47.75 41.5
Q54.8906 34.8125 54.8906 23.3906
Q54.8906 11.625 47.5625 5.09375
Q40.2344 -1.42188 26.9062 -1.42188
Q22.3125 -1.42188 17.5469 -0.640625
Q12.7969 0.140625 7.71875 1.70312
L7.71875 11.625
Q12.1094 9.23438 16.7969 8.0625
Q21.4844 6.89062 26.7031 6.89062
Q35.1562 6.89062 40.0781 11.3281
Q45.0156 15.7656 45.0156 23.3906
Q45.0156 31 40.0781 35.4375
Q35.1562 39.8906 26.7031 39.8906
Q22.75 39.8906 18.8125 39.0156
Q14.8906 38.1406 10.7969 36.2812
z
" id="BitstreamVeraSans-Roman-35"/>
      </defs>
      <g transform="translate(65.264375 249.396964286)scale(0.12 -0.12)">
       <use xlink:href="#BitstreamVeraSans-Roman-35"/>
      </g>
     </g>
    </g>
    <g id="ytick_2">
     <g id="line2d_6">
      <g>
       <use style="stroke:#000000;stroke-width:0.5;" x="74.925" xlink:href="#m728421d6d4" y="210.291428571"/>
      </g>
     </g>
     <g id="line2d_7">
      <g>
       <use style="stroke:#000000;stroke-width:0.5;" x="539.46" xlink:href="#mcb0005524f" y="210.291428571"/>
      </g>
     </g>
     <g id="text_5">
      <!-- 10 -->
      <defs>
       <path d="
M31.7812 66.4062
Q24.1719 66.4062 20.3281 58.9062
Q16.5 51.4219 16.5 36.375
Q16.5 21.3906 20.3281 13.8906
Q24.1719 6.39062 31.7812 6.39062
Q39.4531 6.39062 43.2812 13.8906
Q47.125 21.3906 47.125 36.375
Q47.125 51.4219 43.2812 58.9062
Q39.4531 66.4062 31.7812 66.4062
M31.7812 74.2188
Q44.0469 74.2188 50.5156 64.5156
Q56.9844 54.8281 56.9844 36.375
Q56.9844 17.9688 50.5156 8.26562
Q44.0469 -1.42188 31.7812 -1.42188
Q19.5312 -1.42188 13.0625 8.26562
Q6.59375 17.9688 6.59375 36.375
Q6.59375 54.8281 13.0625 64.5156
Q19.5312 74.2188 31.7812 74.2188" id="BitstreamVeraSans-Roman-30"/>
       <path d="
M12.4062 8.29688
L28.5156 8.29688
L28.5156 63.9219
L10.9844 60.4062
L10.9844 69.3906
L28.4219 72.9062
L38.2812 72.9062
L38.2812 8.29688
L54.3906 8.29688
L54.3906 0
L12.4062 0
z
" id="BitstreamVeraSans-Roman-31"/>
      </defs>
      <g transform="translate(57.77 213.602678571)scale(0.12 -0.12)">
       <use xlink:href="#BitstreamVeraSans-Roman-31"/>
       <use x="63.623046875" xlink:href="#BitstreamVeraSans-Roman-30"/>
      </g>
     </g>
    </g>
    <g id="ytick_3">
     <g id="line2d_8">
      <g>
       <use style="stroke:#000000;stroke-width:0.5;" x="74.925" xlink:href="#m728421d6d4" y="174.497142857"/>
      </g>
     </g>
     <g id="line2d_9">
      <g>
       <use style="stroke:#000000;stroke-width:0.5;" x="539.46" xlink:href="#mcb0005524f" y="174.497142857"/>
      </g>
     </g>
     <g id="text_6">
      <!-- 15 -->
      <g transform="translate(58.02125 177.808392857)scale(0.12 -0.12)">
       <use xlink:href="#BitstreamVeraSans-Roman-31"/>
       <use x="63.623046875" xlink:href="#BitstreamVeraSans-Roman-35"/>
      </g>
     </g>
    </g>
    <g id="ytick_4">
     <g id="line2d_10">
      <g>
       <use style="stroke:#000000;stroke-width:0.5;" x="74.925" xlink:href="#m728421d6d4" y="138.702857143"/>
      </g>
     </g>
     <g id="line2d_11">
      <g>
       <use style="stroke:#000000;stroke-width:0.5;" x="539.46" xlink:href="#mcb0005524f" y="138.702857143"/>
      </g>
     </g>
     <g id="text_7">
      <!-- 20 -->
      <g transform="translate(57.33125 142.014107143)scale(0.12 -0.12)">
       <use xlink:href="#BitstreamVeraSans-Roman-32"/>
       <use x="63.623046875" xlink:href="#BitstreamVeraSans-Roman-30"/>
      </g>
     </g>
    </g>
    <g id="ytick_5">
     <g id="line2d_12">
      <g>
       <use style="stroke:#000000;stroke-width:0.5;" x="74.925" xlink:href="#m728421d6d4" y="102.908571429"/>
      </g>
     </g>
     <g id="line2d_13">
      <g>
       <use style="stroke:#000000;stroke-width:0.5;" x="539.46" xlink:href="#mcb0005524f" y="102.908571429"/>
      </g>
     </g>
     <g id="text_8">
      <!-- 25 -->
      <g transform="translate(57.5825 106.219821429)scale(0.12 -0.12)">
       <use xlink:href="#BitstreamVeraSans-Roman-32"/>
       <use x="63.623046875" xlink:href="#BitstreamVeraSans-Roman-35"/>
      </g>
     </g>
    </g>
    <g id="ytick_6">
     <g id="line2d_14">
      <g>
       <use style="stroke:#000000;stroke-width:0.5;" x="74.925" xlink:href="#m728421d6d4" y="67.1142857143"/>
      </g>
     </g>
     <g id="line2d_15">
      <g>
       <use style="stroke:#000000;stroke-width:0.5;" x="539.46" xlink:href="#mcb0005524f" y="67.1142857143"/>
      </g>
     </g>
     <g id="text_9">
      <!-- 30 -->
      <g transform="translate(57.366875 70.4255357143)scale(0.12 -0.12)">
       <use xlink:href="#BitstreamVeraSans-Roman-33"/>
       <use x="63.623046875" xlink:href="#BitstreamVeraSans-Roman-30"/>
      </g>
     </g>
    </g>
    <g id="ytick_7">
     <g id="line2d_16">
      <g>
       <use style="stroke:#000000;stroke-width:0.5;" x="74.925" xlink:href="#m728421d6d4" y="31.32"/>
      </g>
     </g>
     <g id="line2d_17">
      <g>
       <use style="stroke:#000000;stroke-width:0.5;" x="539.46" xlink:href="#mcb0005524f" y="31.32"/>
      </g>
     </g>
     <g id="text_10">
      <!-- 35 -->
      <g transform="translate(57.618125 34.63125)scale(0.12 -0.12)">
       <use xlink:href="#BitstreamVeraSans-Roman-33"/>
       <use x="63.623046875" xlink:href="#BitstreamVeraSans-Roman-35"/>
      </g>
     </g>
    </g>
    <g id="text_11">
     <!-- Kernel runtime (s) -->
     <defs>
      <path d="
M9.8125 72.9062
L19.6719 72.9062
L19.6719 42.0938
L52.3906 72.9062
L65.0938 72.9062
L28.9062 38.9219
L67.6719 0
L54.6875 0
L19.6719 35.1094
L19.6719 0
L9.8125 0
z
" id="BitstreamVeraSans-Roman-4b"/>
     </defs>
     <g transform="translate(49.835625 210.181875)rotate(-90.0)scale(0.12 -0.12)">
      <use xlink:href="#BitstreamVeraSans-Roman-4b"/>
      <use x="60.576171875" xlink:href="#BitstreamVeraSans-Roman-65"/>
      <use x="122.099609375" xlink:href="#BitstreamVeraSans-Roman-72"/>
      <use x="161.462890625" xlink:href="#BitstreamVeraSans-Roman-6e"/>
      <use x="224.841796875" xlink:href="#BitstreamVeraSans-Roman-65"/>
      <use x="286.365234375" xlink:href="#BitstreamVeraSans-Roman-6c"/>
      <use x="314.1484375" xlink:href="#BitstreamVeraSans-Roman-20"/>
      <use x="345.935546875" xlink:href="#BitstreamVeraSans-Roman-72"/>
      <use x="387.048828125" xlink:href="#BitstreamVeraSans-Roman-75"/>
      <use x="450.427734375" xlink:href="#BitstreamVeraSans-Roman-6e"/>
      <use x="513.806640625" xlink:href="#BitstreamVeraSans-Roman-74"/>
      <use x="553.015625" xlink:href="#BitstreamVeraSans-Roman-69"/>
      <use x="580.798828125" xlink:href="#BitstreamVeraSans-Roman-6d"/>
      <use x="678.2109375" xlink:href="#BitstreamVeraSans-Roman-65"/>
      <use x="739.734375" xlink:href="#BitstreamVeraSans-Roman-20"/>
      <use x="771.521484375" xlink:href="#BitstreamVeraSans-Roman-28"/>
      <use x="810.53515625" xlink:href="#BitstreamVeraSans-Roman-73"/>
      <use x="862.634765625" xlink:href="#BitstreamVeraSans-Roman-29"/>
     </g>
    </g>
   </g>
   <g id="patch_9">
    <path d="
M74.925 31.32
L539.46 31.32" style="fill:none;stroke:#000000;"/>
   </g>
   <g id="patch_10">
    <path d="
M539.46 281.88
L539.46 31.32" style="fill:none;stroke:#000000;"/>
   </g>
   <g id="patch_11">
    <path d="
M74.925 281.88
L539.46 281.88" style="fill:none;stroke:#000000;"/>
   </g>
   <g id="patch_12">
    <path d="
M74.925 281.88
L74.925 31.32" style="fill:none;stroke:#000000;"/>
   </g>
   <g id="text_12">
    <!-- 11.63 -->
    <defs>
     <path d="
M33.0156 40.375
Q26.375 40.375 22.4844 35.8281
Q18.6094 31.2969 18.6094 23.3906
Q18.6094 15.5312 22.4844 10.9531
Q26.375 6.39062 33.0156 6.39062
Q39.6562 6.39062 43.5312 10.9531
Q47.4062 15.5312 47.4062 23.3906
Q47.4062 31.2969 43.5312 35.8281
Q39.6562 40.375 33.0156 40.375
M52.5938 71.2969
L52.5938 62.3125
Q48.875 64.0625 45.0938 64.9844
Q41.3125 65.9219 37.5938 65.9219
Q27.8281 65.9219 22.6719 59.3281
Q17.5312 52.7344 16.7969 39.4062
Q19.6719 43.6562 24.0156 45.9219
Q28.375 48.1875 33.5938 48.1875
Q44.5781 48.1875 50.9531 41.5156
Q57.3281 34.8594 57.3281 23.3906
Q57.3281 12.1562 50.6875 5.35938
Q44.0469 -1.42188 33.0156 -1.42188
Q20.3594 -1.42188 13.6719 8.26562
Q6.98438 17.9688 6.98438 36.375
Q6.98438 53.6562 15.1875 63.9375
Q23.3906 74.2188 37.2031 74.2188
Q40.9219 74.2188 44.7031 73.4844
Q48.4844 72.75 52.5938 71.2969" id="BitstreamVeraSans-Roman-36"/>
    </defs>
    <g transform="translate(109.20525 187.884205714)rotate(-90.0)scale(0.12 -0.12)">
     <use xlink:href="#BitstreamVeraSans-Roman-31"/>
     <use x="63.623046875" xlink:href="#BitstreamVeraSans-Roman-31"/>
     <use x="127.24609375" xlink:href="#BitstreamVeraSans-Roman-2e"/>
     <use x="159.033203125" xlink:href="#BitstreamVeraSans-Roman-36"/>
     <use x="222.65625" xlink:href="#BitstreamVeraSans-Roman-33"/>
    </g>
   </g>
   <g id="text_13">
    <!-- 16.01 -->
    <g transform="translate(264.05025 156.528411429)rotate(-90.0)scale(0.12 -0.12)">
     <use xlink:href="#BitstreamVeraSans-Roman-31"/>
     <use x="63.623046875" xlink:href="#BitstreamVeraSans-Roman-36"/>
     <use x="127.24609375" xlink:href="#BitstreamVeraSans-Roman-2e"/>
     <use x="159.033203125" xlink:href="#BitstreamVeraSans-Roman-30"/>
     <use x="222.65625" xlink:href="#BitstreamVeraSans-Roman-31"/>
    </g>
   </g>
   <g id="text_14">
    <!-- 26.71 -->
    <g transform="translate(418.89525 79.92864)rotate(-90.0)scale(0.12 -0.12)">
     <use xlink:href="#BitstreamVeraSans-Roman-32"/>
     <use x="63.623046875" xlink:href="#BitstreamVeraSans-Roman-36"/>
     <use x="127.24609375" xlink:href="#BitstreamVeraSans-Roman-2e"/>
     <use x="159.033203125" xlink:href="#BitstreamVeraSans-Roman-37"/>
     <use x="222.65625" xlink:href="#BitstreamVeraSans-Roman-31"/>
    </g>
   </g>
   <g id="text_15">
    <!-- 7.33 -->
    <g transform="translate(171.14325 218.674450286)rotate(-90.0)scale(0.12 -0.12)">
     <use xlink:href="#BitstreamVeraSans-Roman-37"/>
     <use x="63.623046875" xlink:href="#BitstreamVeraSans-Roman-2e"/>
     <use x="95.41015625" xlink:href="#BitstreamVeraSans-Roman-33"/>
     <use x="159.033203125" xlink:href="#BitstreamVeraSans-Roman-33"/>
    </g>
   </g>
   <g id="text_16">
    <!-- 11.50 -->
    <g transform="translate(325.98825 188.814857143)rotate(-90.0)scale(0.12 -0.12)">
     <use xlink:href="#BitstreamVeraSans-Roman-31"/>
     <use x="63.623046875" xlink:href="#BitstreamVeraSans-Roman-31"/>
     <use x="127.24609375" xlink:href="#BitstreamVeraSans-Roman-2e"/>
     <use x="159.033203125" xlink:href="#BitstreamVeraSans-Roman-35"/>
     <use x="222.65625" xlink:href="#BitstreamVeraSans-Roman-30"/>
    </g>
   </g>
   <g id="text_17">
    <!-- 20.88 -->
    <defs>
     <path d="
M31.7812 34.625
Q24.75 34.625 20.7188 30.8594
Q16.7031 27.0938 16.7031 20.5156
Q16.7031 13.9219 20.7188 10.1562
Q24.75 6.39062 31.7812 6.39062
Q38.8125 6.39062 42.8594 10.1719
Q46.9219 13.9688 46.9219 20.5156
Q46.9219 27.0938 42.8906 30.8594
Q38.875 34.625 31.7812 34.625
M21.9219 38.8125
Q15.5781 40.375 12.0312 44.7188
Q8.5 49.0781 8.5 55.3281
Q8.5 64.0625 14.7188 69.1406
Q20.9531 74.2188 31.7812 74.2188
Q42.6719 74.2188 48.875 69.1406
Q55.0781 64.0625 55.0781 55.3281
Q55.0781 49.0781 51.5312 44.7188
Q48 40.375 41.7031 38.8125
Q48.8281 37.1562 52.7969 32.3125
Q56.7812 27.4844 56.7812 20.5156
Q56.7812 9.90625 50.3125 4.23438
Q43.8438 -1.42188 31.7812 -1.42188
Q19.7344 -1.42188 13.25 4.23438
Q6.78125 9.90625 6.78125 20.5156
Q6.78125 27.4844 10.7812 32.3125
Q14.7969 37.1562 21.9219 38.8125
M18.3125 54.3906
Q18.3125 48.7344 21.8438 45.5625
Q25.3906 42.3906 31.7812 42.3906
Q38.1406 42.3906 41.7188 45.5625
Q45.3125 48.7344 45.3125 54.3906
Q45.3125 60.0625 41.7188 63.2344
Q38.1406 66.4062 31.7812 66.4062
Q25.3906 66.4062 21.8438 63.2344
Q18.3125 60.0625 18.3125 54.3906" id="BitstreamVeraSans-Roman-38"/>
    </defs>
    <g transform="translate(480.83325 121.664777143)rotate(-90.0)scale(0.12 -0.12)">
     <use xlink:href="#BitstreamVeraSans-Roman-32"/>
     <use x="63.623046875" xlink:href="#BitstreamVeraSans-Roman-30"/>
     <use x="127.24609375" xlink:href="#BitstreamVeraSans-Roman-2e"/>
     <use x="159.033203125" xlink:href="#BitstreamVeraSans-Roman-38"/>
     <use x="222.65625" xlink:href="#BitstreamVeraSans-Roman-38"/>
    </g>
   </g>
   <g id="legend_1">
    <g id="patch_13">
     <path d="
M82.125 85.113
L266.488 85.113
L266.488 38.52
L82.125 38.52
L82.125 85.113
z
" style="fill:#ffffff;stroke:#000000;"/>
    </g>
    <g id="patch_14">
     <path d="
M87.885 55.2217
L116.685 55.2217
L116.685 45.1417
L87.885 45.1417
z
" style="fill:url(#h9782ebb09d);stroke:#000000;"/>
    </g>
    <g id="text_18">
     <!-- without reordering -->
     <defs>
      <path d="
M45.4062 46.3906
L45.4062 75.9844
L54.3906 75.9844
L54.3906 0
L45.4062 0
L45.4062 8.20312
Q42.5781 3.32812 38.25 0.953125
Q33.9375 -1.42188 27.875 -1.42188
Q17.9688 -1.42188 11.7344 6.48438
Q5.51562 14.4062 5.51562 27.2969
Q5.51562 40.1875 11.7344 48.0938
Q17.9688 56 27.875 56
Q33.9375 56 38.25 53.625
Q42.5781 51.2656 45.4062 46.3906
M14.7969 27.2969
Q14.7969 17.3906 18.875 11.75
Q22.9531 6.10938 30.0781 6.10938
Q37.2031 6.10938 41.2969 11.75
Q45.4062 17.3906 45.4062 27.2969
Q45.4062 37.2031 41.2969 42.8438
Q37.2031 48.4844 30.0781 48.4844
Q22.9531 48.4844 18.875 42.8438
Q14.7969 37.2031 14.7969 27.2969" id="BitstreamVeraSans-Roman-64"/>
      <path d="
M45.4062 27.9844
Q45.4062 37.75 41.375 43.1094
Q37.3594 48.4844 30.0781 48.4844
Q22.8594 48.4844 18.8281 43.1094
Q14.7969 37.75 14.7969 27.9844
Q14.7969 18.2656 18.8281 12.8906
Q22.8594 7.51562 30.0781 7.51562
Q37.3594 7.51562 41.375 12.8906
Q45.4062 18.2656 45.4062 27.9844
M54.3906 6.78125
Q54.3906 -7.17188 48.1875 -13.9844
Q42 -20.7969 29.2031 -20.7969
Q24.4688 -20.7969 20.2656 -20.0938
Q16.0625 -19.3906 12.1094 -17.9219
L12.1094 -9.1875
Q16.0625 -11.3281 19.9219 -12.3438
Q23.7812 -13.375 27.7812 -13.375
Q36.625 -13.375 41.0156 -8.76562
Q45.4062 -4.15625 45.4062 5.17188
L45.4062 9.625
Q42.625 4.78125 38.2812 2.39062
Q33.9375 0 27.875 0
Q17.8281 0 11.6719 7.65625
Q5.51562 15.3281 5.51562 27.9844
Q5.51562 40.6719 11.6719 48.3281
Q17.8281 56 27.875 56
Q33.9375 56 38.2812 53.6094
Q42.625 51.2188 45.4062 46.3906
L45.4062 54.6875
L54.3906 54.6875
z
" id="BitstreamVeraSans-Roman-67"/>
      <path d="
M54.8906 33.0156
L54.8906 0
L45.9062 0
L45.9062 32.7188
Q45.9062 40.4844 42.875 44.3281
Q39.8438 48.1875 33.7969 48.1875
Q26.5156 48.1875 22.3125 43.5469
Q18.1094 38.9219 18.1094 30.9062
L18.1094 0
L9.07812 0
L9.07812 75.9844
L18.1094 75.9844
L18.1094 46.1875
Q21.3438 51.125 25.7031 53.5625
Q30.0781 56 35.7969 56
Q45.2188 56 50.0469 50.1719
Q54.8906 44.3438 54.8906 33.0156" id="BitstreamVeraSans-Roman-68"/>
     </defs>
     <g transform="translate(128.205 55.22175)scale(0.144 -0.144)">
      <use xlink:href="#BitstreamVeraSans-Roman-77"/>
      <use x="81.787109375" xlink:href="#BitstreamVeraSans-Roman-69"/>
      <use x="109.5703125" xlink:href="#BitstreamVeraSans-Roman-74"/>
      <use x="148.779296875" xlink:href="#BitstreamVeraSans-Roman-68"/>
      <use x="212.158203125" xlink:href="#BitstreamVeraSans-Roman-6f"/>
      <use x="273.33984375" xlink:href="#BitstreamVeraSans-Roman-75"/>
      <use x="336.71875" xlink:href="#BitstreamVeraSans-Roman-74"/>
      <use x="375.927734375" xlink:href="#BitstreamVeraSans-Roman-20"/>
      <use x="407.71484375" xlink:href="#BitstreamVeraSans-Roman-72"/>
      <use x="446.578125" xlink:href="#BitstreamVeraSans-Roman-65"/>
      <use x="508.1015625" xlink:href="#BitstreamVeraSans-Roman-6f"/>
      <use x="569.283203125" xlink:href="#BitstreamVeraSans-Roman-72"/>
      <use x="608.646484375" xlink:href="#BitstreamVeraSans-Roman-64"/>
      <use x="672.123046875" xlink:href="#BitstreamVeraSans-Roman-65"/>
      <use x="733.646484375" xlink:href="#BitstreamVeraSans-Roman-72"/>
      <use x="774.759765625" xlink:href="#BitstreamVeraSans-Roman-69"/>
      <use x="802.54296875" xlink:href="#BitstreamVeraSans-Roman-6e"/>
      <use x="865.921875" xlink:href="#BitstreamVeraSans-Roman-67"/>
     </g>
    </g>
    <g id="patch_15">
     <path d="
M87.885 76.3582
L116.685 76.3582
L116.685 66.2782
L87.885 66.2782
z
" style="fill:url(#h2d0691dd9f);stroke:#000000;"/>
    </g>
    <g id="text_19">
     <!-- with reordering -->
     <g transform="translate(128.205 76.35825)scale(0.144 -0.144)">
      <use xlink:href="#BitstreamVeraSans-Roman-77"/>
      <use x="81.787109375" xlink:href="#BitstreamVeraSans-Roman-69"/>
      <use x="109.5703125" xlink:href="#BitstreamVeraSans-Roman-74"/>
      <use x="148.779296875" xlink:href="#BitstreamVeraSans-Roman-68"/>
      <use x="212.158203125" xlink:href="#BitstreamVeraSans-Roman-20"/>
      <use x="243.9453125" xlink:href="#BitstreamVeraSans-Roman-72"/>
      <use x="282.80859375" xlink:href="#BitstreamVeraSans-Roman-65"/>
      <use x="344.33203125" xlink:href="#BitstreamVeraSans-Roman-6f"/>
      <use x="405.513671875" xlink:href="#BitstreamVeraSans-Roman-72"/>
      <use x="444.876953125" xlink:href="#BitstreamVeraSans-Roman-64"/>
      <use x="508.353515625" xlink:href="#BitstreamVeraSans-Roman-65"/>
      <use x="569.876953125" xlink:href="#BitstreamVeraSans-Roman-72"/>
      <use x="610.990234375" xlink:href="#BitstreamVeraSans-Roman-69"/>
      <use x="638.7734375" xlink:href="#BitstreamVeraSans-Roman-6e"/>
      <use x="702.15234375" xlink:href="#BitstreamVeraSans-Roman-67"/>
     </g>
    </g>
   </g>
  </g>
 </g>
 <defs>
  <clipPath id="p6f64557bc5">
   <rect height="250.56" width="464.535" x="74.925" y="31.32"/>
  </clipPath>
 </defs>
 <defs>
  <pattern height="72" id="h9782ebb09d" patternUnits="userSpaceOnUse" width="72" x="0" y="0">
   <rect fill="#ffffff" height="73" width="73" x="0" y="0"/>
   <path style="fill:#000000;stroke:#000000;stroke-linecap:butt;stroke-linejoin:miter;stroke-width:1.0;"/>
  </pattern>
  <pattern height="72" id="h2d0691dd9f" patternUnits="userSpaceOnUse" width="72" x="0" y="0">
   <rect fill="#ffffff" height="73" width="73" x="0" y="0"/>
   <path d="
M0 74.4
C0.636487 74.4 1.24699 74.1471 1.69706 73.6971
C2.14712 73.247 2.4 72.6365 2.4 72
C2.4 71.3635 2.14712 70.753 1.69706 70.3029
C1.24699 69.8529 0.636487 69.6 0 69.6
C-0.636487 69.6 -1.24699 69.8529 -1.69706 70.3029
C-2.14712 70.753 -2.4 71.3635 -2.4 72
C-2.4 72.6365 -2.14712 73.247 -1.69706 73.6971
C-1.24699 74.1471 -0.636487 74.4 0 74.4
z

M0 74.16
C0 74.16 -0.572839 74.16 -1.12229 73.9324
C-1.52735 73.5274 -1.93241 73.1223 -2.16 72.5728
C-2.16 72 -2.16 71.4272 -1.93241 70.8777
C-1.52735 70.4726 -1.12229 70.0676 -0.572839 69.84
C0 69.84 0.572839 69.84 1.12229 70.0676
C1.52735 70.4726 1.93241 70.8777 2.16 71.4272
C2.16 72 2.16 72.5728 1.93241 73.1223
C1.52735 73.5274 1.12229 73.9324 0.572839 74.16
z

M12 74.4
C12.6365 74.4 13.247 74.1471 13.6971 73.6971
C14.1471 73.247 14.4 72.6365 14.4 72
C14.4 71.3635 14.1471 70.753 13.6971 70.3029
C13.247 69.8529 12.6365 69.6 12 69.6
C11.3635 69.6 10.753 69.8529 10.3029 70.3029
C9.85288 70.753 9.6 71.3635 9.6 72
C9.6 72.6365 9.85288 73.247 10.3029 73.6971
C10.753 74.1471 11.3635 74.4 12 74.4
z

M12 74.16
C12 74.16 11.4272 74.16 10.8777 73.9324
C10.4726 73.5274 10.0676 73.1223 9.84 72.5728
C9.84 72 9.84 71.4272 10.0676 70.8777
C10.4726 70.4726 10.8777 70.0676 11.4272 69.84
C12 69.84 12.5728 69.84 13.1223 70.0676
C13.5274 70.4726 13.9324 70.8777 14.16 71.4272
C14.16 72 14.16 72.5728 13.9324 73.1223
C13.5274 73.5274 13.1223 73.9324 12.5728 74.16
z

M24 74.4
C24.6365 74.4 25.247 74.1471 25.6971 73.6971
C26.1471 73.247 26.4 72.6365 26.4 72
C26.4 71.3635 26.1471 70.753 25.6971 70.3029
C25.247 69.8529 24.6365 69.6 24 69.6
C23.3635 69.6 22.753 69.8529 22.3029 70.3029
C21.8529 70.753 21.6 71.3635 21.6 72
C21.6 72.6365 21.8529 73.247 22.3029 73.6971
C22.753 74.1471 23.3635 74.4 24 74.4
z

M24 74.16
C24 74.16 23.4272 74.16 22.8777 73.9324
C22.4726 73.5274 22.0676 73.1223 21.84 72.5728
C21.84 72 21.84 71.4272 22.0676 70.8777
C22.4726 70.4726 22.8777 70.0676 23.4272 69.84
C24 69.84 24.5728 69.84 25.1223 70.0676
C25.5274 70.4726 25.9324 70.8777 26.16 71.4272
C26.16 72 26.16 72.5728 25.9324 73.1223
C25.5274 73.5274 25.1223 73.9324 24.5728 74.16
z

M36 74.4
C36.6365 74.4 37.247 74.1471 37.6971 73.6971
C38.1471 73.247 38.4 72.6365 38.4 72
C38.4 71.3635 38.1471 70.753 37.6971 70.3029
C37.247 69.8529 36.6365 69.6 36 69.6
C35.3635 69.6 34.753 69.8529 34.3029 70.3029
C33.8529 70.753 33.6 71.3635 33.6 72
C33.6 72.6365 33.8529 73.247 34.3029 73.6971
C34.753 74.1471 35.3635 74.4 36 74.4
z

M36 74.16
C36 74.16 35.4272 74.16 34.8777 73.9324
C34.4726 73.5274 34.0676 73.1223 33.84 72.5728
C33.84 72 33.84 71.4272 34.0676 70.8777
C34.4726 70.4726 34.8777 70.0676 35.4272 69.84
C36 69.84 36.5728 69.84 37.1223 70.0676
C37.5274 70.4726 37.9324 70.8777 38.16 71.4272
C38.16 72 38.16 72.5728 37.9324 73.1223
C37.5274 73.5274 37.1223 73.9324 36.5728 74.16
z

M48 74.4
C48.6365 74.4 49.247 74.1471 49.6971 73.6971
C50.1471 73.247 50.4 72.6365 50.4 72
C50.4 71.3635 50.1471 70.753 49.6971 70.3029
C49.247 69.8529 48.6365 69.6 48 69.6
C47.3635 69.6 46.753 69.8529 46.3029 70.3029
C45.8529 70.753 45.6 71.3635 45.6 72
C45.6 72.6365 45.8529 73.247 46.3029 73.6971
C46.753 74.1471 47.3635 74.4 48 74.4
z

M48 74.16
C48 74.16 47.4272 74.16 46.8777 73.9324
C46.4726 73.5274 46.0676 73.1223 45.84 72.5728
C45.84 72 45.84 71.4272 46.0676 70.8777
C46.4726 70.4726 46.8777 70.0676 47.4272 69.84
C48 69.84 48.5728 69.84 49.1223 70.0676
C49.5274 70.4726 49.9324 70.8777 50.16 71.4272
C50.16 72 50.16 72.5728 49.9324 73.1223
C49.5274 73.5274 49.1223 73.9324 48.5728 74.16
z

M60 74.4
C60.6365 74.4 61.247 74.1471 61.6971 73.6971
C62.1471 73.247 62.4 72.6365 62.4 72
C62.4 71.3635 62.1471 70.753 61.6971 70.3029
C61.247 69.8529 60.6365 69.6 60 69.6
C59.3635 69.6 58.753 69.8529 58.3029 70.3029
C57.8529 70.753 57.6 71.3635 57.6 72
C57.6 72.6365 57.8529 73.247 58.3029 73.6971
C58.753 74.1471 59.3635 74.4 60 74.4
z

M60 74.16
C60 74.16 59.4272 74.16 58.8777 73.9324
C58.4726 73.5274 58.0676 73.1223 57.84 72.5728
C57.84 72 57.84 71.4272 58.0676 70.8777
C58.4726 70.4726 58.8777 70.0676 59.4272 69.84
C60 69.84 60.5728 69.84 61.1223 70.0676
C61.5274 70.4726 61.9324 70.8777 62.16 71.4272
C62.16 72 62.16 72.5728 61.9324 73.1223
C61.5274 73.5274 61.1223 73.9324 60.5728 74.16
z

M72 74.4
C72.6365 74.4 73.247 74.1471 73.6971 73.6971
C74.1471 73.247 74.4 72.6365 74.4 72
C74.4 71.3635 74.1471 70.753 73.6971 70.3029
C73.247 69.8529 72.6365 69.6 72 69.6
C71.3635 69.6 70.753 69.8529 70.3029 70.3029
C69.8529 70.753 69.6 71.3635 69.6 72
C69.6 72.6365 69.8529 73.247 70.3029 73.6971
C70.753 74.1471 71.3635 74.4 72 74.4
z

M72 74.16
C72 74.16 71.4272 74.16 70.8777 73.9324
C70.4726 73.5274 70.0676 73.1223 69.84 72.5728
C69.84 72 69.84 71.4272 70.0676 70.8777
C70.4726 70.4726 70.8777 70.0676 71.4272 69.84
C72 69.84 72.5728 69.84 73.1223 70.0676
C73.5274 70.4726 73.9324 70.8777 74.16 71.4272
C74.16 72 74.16 72.5728 73.9324 73.1223
C73.5274 73.5274 73.1223 73.9324 72.5728 74.16
z

M6 62.4
C6.63649 62.4 7.24699 62.1471 7.69706 61.6971
C8.14712 61.247 8.4 60.6365 8.4 60
C8.4 59.3635 8.14712 58.753 7.69706 58.3029
C7.24699 57.8529 6.63649 57.6 6 57.6
C5.36351 57.6 4.75301 57.8529 4.30294 58.3029
C3.85288 58.753 3.6 59.3635 3.6 60
C3.6 60.6365 3.85288 61.247 4.30294 61.6971
C4.75301 62.1471 5.36351 62.4 6 62.4
z

M6 62.16
C6 62.16 5.42716 62.16 4.87771 61.9324
C4.47265 61.5274 4.06759 61.1223 3.84 60.5728
C3.84 60 3.84 59.4272 4.06759 58.8777
C4.47265 58.4726 4.87771 58.0676 5.42716 57.84
C6 57.84 6.57284 57.84 7.12229 58.0676
C7.52735 58.4726 7.93241 58.8777 8.16 59.4272
C8.16 60 8.16 60.5728 7.93241 61.1223
C7.52735 61.5274 7.12229 61.9324 6.57284 62.16
z

M18 62.4
C18.6365 62.4 19.247 62.1471 19.6971 61.6971
C20.1471 61.247 20.4 60.6365 20.4 60
C20.4 59.3635 20.1471 58.753 19.6971 58.3029
C19.247 57.8529 18.6365 57.6 18 57.6
C17.3635 57.6 16.753 57.8529 16.3029 58.3029
C15.8529 58.753 15.6 59.3635 15.6 60
C15.6 60.6365 15.8529 61.247 16.3029 61.6971
C16.753 62.1471 17.3635 62.4 18 62.4
z

M18 62.16
C18 62.16 17.4272 62.16 16.8777 61.9324
C16.4726 61.5274 16.0676 61.1223 15.84 60.5728
C15.84 60 15.84 59.4272 16.0676 58.8777
C16.4726 58.4726 16.8777 58.0676 17.4272 57.84
C18 57.84 18.5728 57.84 19.1223 58.0676
C19.5274 58.4726 19.9324 58.8777 20.16 59.4272
C20.16 60 20.16 60.5728 19.9324 61.1223
C19.5274 61.5274 19.1223 61.9324 18.5728 62.16
z

M30 62.4
C30.6365 62.4 31.247 62.1471 31.6971 61.6971
C32.1471 61.247 32.4 60.6365 32.4 60
C32.4 59.3635 32.1471 58.753 31.6971 58.3029
C31.247 57.8529 30.6365 57.6 30 57.6
C29.3635 57.6 28.753 57.8529 28.3029 58.3029
C27.8529 58.753 27.6 59.3635 27.6 60
C27.6 60.6365 27.8529 61.247 28.3029 61.6971
C28.753 62.1471 29.3635 62.4 30 62.4
z

M30 62.16
C30 62.16 29.4272 62.16 28.8777 61.9324
C28.4726 61.5274 28.0676 61.1223 27.84 60.5728
C27.84 60 27.84 59.4272 28.0676 58.8777
C28.4726 58.4726 28.8777 58.0676 29.4272 57.84
C30 57.84 30.5728 57.84 31.1223 58.0676
C31.5274 58.4726 31.9324 58.8777 32.16 59.4272
C32.16 60 32.16 60.5728 31.9324 61.1223
C31.5274 61.5274 31.1223 61.9324 30.5728 62.16
z

M42 62.4
C42.6365 62.4 43.247 62.1471 43.6971 61.6971
C44.1471 61.247 44.4 60.6365 44.4 60
C44.4 59.3635 44.1471 58.753 43.6971 58.3029
C43.247 57.8529 42.6365 57.6 42 57.6
C41.3635 57.6 40.753 57.8529 40.3029 58.3029
C39.8529 58.753 39.6 59.3635 39.6 60
C39.6 60.6365 39.8529 61.247 40.3029 61.6971
C40.753 62.1471 41.3635 62.4 42 62.4
z

M42 62.16
C42 62.16 41.4272 62.16 40.8777 61.9324
C40.4726 61.5274 40.0676 61.1223 39.84 60.5728
C39.84 60 39.84 59.4272 40.0676 58.8777
C40.4726 58.4726 40.8777 58.0676 41.4272 57.84
C42 57.84 42.5728 57.84 43.1223 58.0676
C43.5274 58.4726 43.9324 58.8777 44.16 59.4272
C44.16 60 44.16 60.5728 43.9324 61.1223
C43.5274 61.5274 43.1223 61.9324 42.5728 62.16
z

M54 62.4
C54.6365 62.4 55.247 62.1471 55.6971 61.6971
C56.1471 61.247 56.4 60.6365 56.4 60
C56.4 59.3635 56.1471 58.753 55.6971 58.3029
C55.247 57.8529 54.6365 57.6 54 57.6
C53.3635 57.6 52.753 57.8529 52.3029 58.3029
C51.8529 58.753 51.6 59.3635 51.6 60
C51.6 60.6365 51.8529 61.247 52.3029 61.6971
C52.753 62.1471 53.3635 62.4 54 62.4
z

M54 62.16
C54 62.16 53.4272 62.16 52.8777 61.9324
C52.4726 61.5274 52.0676 61.1223 51.84 60.5728
C51.84 60 51.84 59.4272 52.0676 58.8777
C52.4726 58.4726 52.8777 58.0676 53.4272 57.84
C54 57.84 54.5728 57.84 55.1223 58.0676
C55.5274 58.4726 55.9324 58.8777 56.16 59.4272
C56.16 60 56.16 60.5728 55.9324 61.1223
C55.5274 61.5274 55.1223 61.9324 54.5728 62.16
z

M66 62.4
C66.6365 62.4 67.247 62.1471 67.6971 61.6971
C68.1471 61.247 68.4 60.6365 68.4 60
C68.4 59.3635 68.1471 58.753 67.6971 58.3029
C67.247 57.8529 66.6365 57.6 66 57.6
C65.3635 57.6 64.753 57.8529 64.3029 58.3029
C63.8529 58.753 63.6 59.3635 63.6 60
C63.6 60.6365 63.8529 61.247 64.3029 61.6971
C64.753 62.1471 65.3635 62.4 66 62.4
z

M66 62.16
C66 62.16 65.4272 62.16 64.8777 61.9324
C64.4726 61.5274 64.0676 61.1223 63.84 60.5728
C63.84 60 63.84 59.4272 64.0676 58.8777
C64.4726 58.4726 64.8777 58.0676 65.4272 57.84
C66 57.84 66.5728 57.84 67.1223 58.0676
C67.5274 58.4726 67.9324 58.8777 68.16 59.4272
C68.16 60 68.16 60.5728 67.9324 61.1223
C67.5274 61.5274 67.1223 61.9324 66.5728 62.16
z

M0 50.4
C0.636487 50.4 1.24699 50.1471 1.69706 49.6971
C2.14712 49.247 2.4 48.6365 2.4 48
C2.4 47.3635 2.14712 46.753 1.69706 46.3029
C1.24699 45.8529 0.636487 45.6 0 45.6
C-0.636487 45.6 -1.24699 45.8529 -1.69706 46.3029
C-2.14712 46.753 -2.4 47.3635 -2.4 48
C-2.4 48.6365 -2.14712 49.247 -1.69706 49.6971
C-1.24699 50.1471 -0.636487 50.4 0 50.4
z

M0 50.16
C0 50.16 -0.572839 50.16 -1.12229 49.9324
C-1.52735 49.5274 -1.93241 49.1223 -2.16 48.5728
C-2.16 48 -2.16 47.4272 -1.93241 46.8777
C-1.52735 46.4726 -1.12229 46.0676 -0.572839 45.84
C0 45.84 0.572839 45.84 1.12229 46.0676
C1.52735 46.4726 1.93241 46.8777 2.16 47.4272
C2.16 48 2.16 48.5728 1.93241 49.1223
C1.52735 49.5274 1.12229 49.9324 0.572839 50.16
z

M12 50.4
C12.6365 50.4 13.247 50.1471 13.6971 49.6971
C14.1471 49.247 14.4 48.6365 14.4 48
C14.4 47.3635 14.1471 46.753 13.6971 46.3029
C13.247 45.8529 12.6365 45.6 12 45.6
C11.3635 45.6 10.753 45.8529 10.3029 46.3029
C9.85288 46.753 9.6 47.3635 9.6 48
C9.6 48.6365 9.85288 49.247 10.3029 49.6971
C10.753 50.1471 11.3635 50.4 12 50.4
z

M12 50.16
C12 50.16 11.4272 50.16 10.8777 49.9324
C10.4726 49.5274 10.0676 49.1223 9.84 48.5728
C9.84 48 9.84 47.4272 10.0676 46.8777
C10.4726 46.4726 10.8777 46.0676 11.4272 45.84
C12 45.84 12.5728 45.84 13.1223 46.0676
C13.5274 46.4726 13.9324 46.8777 14.16 47.4272
C14.16 48 14.16 48.5728 13.9324 49.1223
C13.5274 49.5274 13.1223 49.9324 12.5728 50.16
z

M24 50.4
C24.6365 50.4 25.247 50.1471 25.6971 49.6971
C26.1471 49.247 26.4 48.6365 26.4 48
C26.4 47.3635 26.1471 46.753 25.6971 46.3029
C25.247 45.8529 24.6365 45.6 24 45.6
C23.3635 45.6 22.753 45.8529 22.3029 46.3029
C21.8529 46.753 21.6 47.3635 21.6 48
C21.6 48.6365 21.8529 49.247 22.3029 49.6971
C22.753 50.1471 23.3635 50.4 24 50.4
z

M24 50.16
C24 50.16 23.4272 50.16 22.8777 49.9324
C22.4726 49.5274 22.0676 49.1223 21.84 48.5728
C21.84 48 21.84 47.4272 22.0676 46.8777
C22.4726 46.4726 22.8777 46.0676 23.4272 45.84
C24 45.84 24.5728 45.84 25.1223 46.0676
C25.5274 46.4726 25.9324 46.8777 26.16 47.4272
C26.16 48 26.16 48.5728 25.9324 49.1223
C25.5274 49.5274 25.1223 49.9324 24.5728 50.16
z

M36 50.4
C36.6365 50.4 37.247 50.1471 37.6971 49.6971
C38.1471 49.247 38.4 48.6365 38.4 48
C38.4 47.3635 38.1471 46.753 37.6971 46.3029
C37.247 45.8529 36.6365 45.6 36 45.6
C35.3635 45.6 34.753 45.8529 34.3029 46.3029
C33.8529 46.753 33.6 47.3635 33.6 48
C33.6 48.6365 33.8529 49.247 34.3029 49.6971
C34.753 50.1471 35.3635 50.4 36 50.4
z

M36 50.16
C36 50.16 35.4272 50.16 34.8777 49.9324
C34.4726 49.5274 34.0676 49.1223 33.84 48.5728
C33.84 48 33.84 47.4272 34.0676 46.8777
C34.4726 46.4726 34.8777 46.0676 35.4272 45.84
C36 45.84 36.5728 45.84 37.1223 46.0676
C37.5274 46.4726 37.9324 46.8777 38.16 47.4272
C38.16 48 38.16 48.5728 37.9324 49.1223
C37.5274 49.5274 37.1223 49.9324 36.5728 50.16
z

M48 50.4
C48.6365 50.4 49.247 50.1471 49.6971 49.6971
C50.1471 49.247 50.4 48.6365 50.4 48
C50.4 47.3635 50.1471 46.753 49.6971 46.3029
C49.247 45.8529 48.6365 45.6 48 45.6
C47.3635 45.6 46.753 45.8529 46.3029 46.3029
C45.8529 46.753 45.6 47.3635 45.6 48
C45.6 48.6365 45.8529 49.247 46.3029 49.6971
C46.753 50.1471 47.3635 50.4 48 50.4
z

M48 50.16
C48 50.16 47.4272 50.16 46.8777 49.9324
C46.4726 49.5274 46.0676 49.1223 45.84 48.5728
C45.84 48 45.84 47.4272 46.0676 46.8777
C46.4726 46.4726 46.8777 46.0676 47.4272 45.84
C48 45.84 48.5728 45.84 49.1223 46.0676
C49.5274 46.4726 49.9324 46.8777 50.16 47.4272
C50.16 48 50.16 48.5728 49.9324 49.1223
C49.5274 49.5274 49.1223 49.9324 48.5728 50.16
z

M60 50.4
C60.6365 50.4 61.247 50.1471 61.6971 49.6971
C62.1471 49.247 62.4 48.6365 62.4 48
C62.4 47.3635 62.1471 46.753 61.6971 46.3029
C61.247 45.8529 60.6365 45.6 60 45.6
C59.3635 45.6 58.753 45.8529 58.3029 46.3029
C57.8529 46.753 57.6 47.3635 57.6 48
C57.6 48.6365 57.8529 49.247 58.3029 49.6971
C58.753 50.1471 59.3635 50.4 60 50.4
z

M60 50.16
C60 50.16 59.4272 50.16 58.8777 49.9324
C58.4726 49.5274 58.0676 49.1223 57.84 48.5728
C57.84 48 57.84 47.4272 58.0676 46.8777
C58.4726 46.4726 58.8777 46.0676 59.4272 45.84
C60 45.84 60.5728 45.84 61.1223 46.0676
C61.5274 46.4726 61.9324 46.8777 62.16 47.4272
C62.16 48 62.16 48.5728 61.9324 49.1223
C61.5274 49.5274 61.1223 49.9324 60.5728 50.16
z

M72 50.4
C72.6365 50.4 73.247 50.1471 73.6971 49.6971
C74.1471 49.247 74.4 48.6365 74.4 48
C74.4 47.3635 74.1471 46.753 73.6971 46.3029
C73.247 45.8529 72.6365 45.6 72 45.6
C71.3635 45.6 70.753 45.8529 70.3029 46.3029
C69.8529 46.753 69.6 47.3635 69.6 48
C69.6 48.6365 69.8529 49.247 70.3029 49.6971
C70.753 50.1471 71.3635 50.4 72 50.4
z

M72 50.16
C72 50.16 71.4272 50.16 70.8777 49.9324
C70.4726 49.5274 70.0676 49.1223 69.84 48.5728
C69.84 48 69.84 47.4272 70.0676 46.8777
C70.4726 46.4726 70.8777 46.0676 71.4272 45.84
C72 45.84 72.5728 45.84 73.1223 46.0676
C73.5274 46.4726 73.9324 46.8777 74.16 47.4272
C74.16 48 74.16 48.5728 73.9324 49.1223
C73.5274 49.5274 73.1223 49.9324 72.5728 50.16
z

M6 38.4
C6.63649 38.4 7.24699 38.1471 7.69706 37.6971
C8.14712 37.247 8.4 36.6365 8.4 36
C8.4 35.3635 8.14712 34.753 7.69706 34.3029
C7.24699 33.8529 6.63649 33.6 6 33.6
C5.36351 33.6 4.75301 33.8529 4.30294 34.3029
C3.85288 34.753 3.6 35.3635 3.6 36
C3.6 36.6365 3.85288 37.247 4.30294 37.6971
C4.75301 38.1471 5.36351 38.4 6 38.4
z

M6 38.16
C6 38.16 5.42716 38.16 4.87771 37.9324
C4.47265 37.5274 4.06759 37.1223 3.84 36.5728
C3.84 36 3.84 35.4272 4.06759 34.8777
C4.47265 34.4726 4.87771 34.0676 5.42716 33.84
C6 33.84 6.57284 33.84 7.12229 34.0676
C7.52735 34.4726 7.93241 34.8777 8.16 35.4272
C8.16 36 8.16 36.5728 7.93241 37.1223
C7.52735 37.5274 7.12229 37.9324 6.57284 38.16
z

M18 38.4
C18.6365 38.4 19.247 38.1471 19.6971 37.6971
C20.1471 37.247 20.4 36.6365 20.4 36
C20.4 35.3635 20.1471 34.753 19.6971 34.3029
C19.247 33.8529 18.6365 33.6 18 33.6
C17.3635 33.6 16.753 33.8529 16.3029 34.3029
C15.8529 34.753 15.6 35.3635 15.6 36
C15.6 36.6365 15.8529 37.247 16.3029 37.6971
C16.753 38.1471 17.3635 38.4 18 38.4
z

M18 38.16
C18 38.16 17.4272 38.16 16.8777 37.9324
C16.4726 37.5274 16.0676 37.1223 15.84 36.5728
C15.84 36 15.84 35.4272 16.0676 34.8777
C16.4726 34.4726 16.8777 34.0676 17.4272 33.84
C18 33.84 18.5728 33.84 19.1223 34.0676
C19.5274 34.4726 19.9324 34.8777 20.16 35.4272
C20.16 36 20.16 36.5728 19.9324 37.1223
C19.5274 37.5274 19.1223 37.9324 18.5728 38.16
z

M30 38.4
C30.6365 38.4 31.247 38.1471 31.6971 37.6971
C32.1471 37.247 32.4 36.6365 32.4 36
C32.4 35.3635 32.1471 34.753 31.6971 34.3029
C31.247 33.8529 30.6365 33.6 30 33.6
C29.3635 33.6 28.753 33.8529 28.3029 34.3029
C27.8529 34.753 27.6 35.3635 27.6 36
C27.6 36.6365 27.8529 37.247 28.3029 37.6971
C28.753 38.1471 29.3635 38.4 30 38.4
z

M30 38.16
C30 38.16 29.4272 38.16 28.8777 37.9324
C28.4726 37.5274 28.0676 37.1223 27.84 36.5728
C27.84 36 27.84 35.4272 28.0676 34.8777
C28.4726 34.4726 28.8777 34.0676 29.4272 33.84
C30 33.84 30.5728 33.84 31.1223 34.0676
C31.5274 34.4726 31.9324 34.8777 32.16 35.4272
C32.16 36 32.16 36.5728 31.9324 37.1223
C31.5274 37.5274 31.1223 37.9324 30.5728 38.16
z

M42 38.4
C42.6365 38.4 43.247 38.1471 43.6971 37.6971
C44.1471 37.247 44.4 36.6365 44.4 36
C44.4 35.3635 44.1471 34.753 43.6971 34.3029
C43.247 33.8529 42.6365 33.6 42 33.6
C41.3635 33.6 40.753 33.8529 40.3029 34.3029
C39.8529 34.753 39.6 35.3635 39.6 36
C39.6 36.6365 39.8529 37.247 40.3029 37.6971
C40.753 38.1471 41.3635 38.4 42 38.4
z

M42 38.16
C42 38.16 41.4272 38.16 40.8777 37.9324
C40.4726 37.5274 40.0676 37.1223 39.84 36.5728
C39.84 36 39.84 35.4272 40.0676 34.8777
C40.4726 34.4726 40.8777 34.0676 41.4272 33.84
C42 33.84 42.5728 33.84 43.1223 34.0676
C43.5274 34.4726 43.9324 34.8777 44.16 35.4272
C44.16 36 44.16 36.5728 43.9324 37.1223
C43.5274 37.5274 43.1223 37.9324 42.5728 38.16
z

M54 38.4
C54.6365 38.4 55.247 38.1471 55.6971 37.6971
C56.1471 37.247 56.4 36.6365 56.4 36
C56.4 35.3635 56.1471 34.753 55.6971 34.3029
C55.247 33.8529 54.6365 33.6 54 33.6
C53.3635 33.6 52.753 33.8529 52.3029 34.3029
C51.8529 34.753 51.6 35.3635 51.6 36
C51.6 36.6365 51.8529 37.247 52.3029 37.6971
C52.753 38.1471 53.3635 38.4 54 38.4
z

M54 38.16
C54 38.16 53.4272 38.16 52.8777 37.9324
C52.4726 37.5274 52.0676 37.1223 51.84 36.5728
C51.84 36 51.84 35.4272 52.0676 34.8777
C52.4726 34.4726 52.8777 34.0676 53.4272 33.84
C54 33.84 54.5728 33.84 55.1223 34.0676
C55.5274 34.4726 55.9324 34.8777 56.16 35.4272
C56.16 36 56.16 36.5728 55.9324 37.1223
C55.5274 37.5274 55.1223 37.9324 54.5728 38.16
z

M66 38.4
C66.6365 38.4 67.247 38.1471 67.6971 37.6971
C68.1471 37.247 68.4 36.6365 68.4 36
C68.4 35.3635 68.1471 34.753 67.6971 34.3029
C67.247 33.8529 66.6365 33.6 66 33.6
C65.3635 33.6 64.753 33.8529 64.3029 34.3029
C63.8529 34.753 63.6 35.3635 63.6 36
C63.6 36.6365 63.8529 37.247 64.3029 37.6971
C64.753 38.1471 65.3635 38.4 66 38.4
z

M66 38.16
C66 38.16 65.4272 38.16 64.8777 37.9324
C64.4726 37.5274 64.0676 37.1223 63.84 36.5728
C63.84 36 63.84 35.4272 64.0676 34.8777
C64.4726 34.4726 64.8777 34.0676 65.4272 33.84
C66 33.84 66.5728 33.84 67.1223 34.0676
C67.5274 34.4726 67.9324 34.8777 68.16 35.4272
C68.16 36 68.16 36.5728 67.9324 37.1223
C67.5274 37.5274 67.1223 37.9324 66.5728 38.16
z

M0 26.4
C0.636487 26.4 1.24699 26.1471 1.69706 25.6971
C2.14712 25.247 2.4 24.6365 2.4 24
C2.4 23.3635 2.14712 22.753 1.69706 22.3029
C1.24699 21.8529 0.636487 21.6 0 21.6
C-0.636487 21.6 -1.24699 21.8529 -1.69706 22.3029
C-2.14712 22.753 -2.4 23.3635 -2.4 24
C-2.4 24.6365 -2.14712 25.247 -1.69706 25.6971
C-1.24699 26.1471 -0.636487 26.4 0 26.4
z

M0 26.16
C0 26.16 -0.572839 26.16 -1.12229 25.9324
C-1.52735 25.5274 -1.93241 25.1223 -2.16 24.5728
C-2.16 24 -2.16 23.4272 -1.93241 22.8777
C-1.52735 22.4726 -1.12229 22.0676 -0.572839 21.84
C0 21.84 0.572839 21.84 1.12229 22.0676
C1.52735 22.4726 1.93241 22.8777 2.16 23.4272
C2.16 24 2.16 24.5728 1.93241 25.1223
C1.52735 25.5274 1.12229 25.9324 0.572839 26.16
z

M12 26.4
C12.6365 26.4 13.247 26.1471 13.6971 25.6971
C14.1471 25.247 14.4 24.6365 14.4 24
C14.4 23.3635 14.1471 22.753 13.6971 22.3029
C13.247 21.8529 12.6365 21.6 12 21.6
C11.3635 21.6 10.753 21.8529 10.3029 22.3029
C9.85288 22.753 9.6 23.3635 9.6 24
C9.6 24.6365 9.85288 25.247 10.3029 25.6971
C10.753 26.1471 11.3635 26.4 12 26.4
z

M12 26.16
C12 26.16 11.4272 26.16 10.8777 25.9324
C10.4726 25.5274 10.0676 25.1223 9.84 24.5728
C9.84 24 9.84 23.4272 10.0676 22.8777
C10.4726 22.4726 10.8777 22.0676 11.4272 21.84
C12 21.84 12.5728 21.84 13.1223 22.0676
C13.5274 22.4726 13.9324 22.8777 14.16 23.4272
C14.16 24 14.16 24.5728 13.9324 25.1223
C13.5274 25.5274 13.1223 25.9324 12.5728 26.16
z

M24 26.4
C24.6365 26.4 25.247 26.1471 25.6971 25.6971
C26.1471 25.247 26.4 24.6365 26.4 24
C26.4 23.3635 26.1471 22.753 25.6971 22.3029
C25.247 21.8529 24.6365 21.6 24 21.6
C23.3635 21.6 22.753 21.8529 22.3029 22.3029
C21.8529 22.753 21.6 23.3635 21.6 24
C21.6 24.6365 21.8529 25.247 22.3029 25.6971
C22.753 26.1471 23.3635 26.4 24 26.4
z

M24 26.16
C24 26.16 23.4272 26.16 22.8777 25.9324
C22.4726 25.5274 22.0676 25.1223 21.84 24.5728
C21.84 24 21.84 23.4272 22.0676 22.8777
C22.4726 22.4726 22.8777 22.0676 23.4272 21.84
C24 21.84 24.5728 21.84 25.1223 22.0676
C25.5274 22.4726 25.9324 22.8777 26.16 23.4272
C26.16 24 26.16 24.5728 25.9324 25.1223
C25.5274 25.5274 25.1223 25.9324 24.5728 26.16
z

M36 26.4
C36.6365 26.4 37.247 26.1471 37.6971 25.6971
C38.1471 25.247 38.4 24.6365 38.4 24
C38.4 23.3635 38.1471 22.753 37.6971 22.3029
C37.247 21.8529 36.6365 21.6 36 21.6
C35.3635 21.6 34.753 21.8529 34.3029 22.3029
C33.8529 22.753 33.6 23.3635 33.6 24
C33.6 24.6365 33.8529 25.247 34.3029 25.6971
C34.753 26.1471 35.3635 26.4 36 26.4
z

M36 26.16
C36 26.16 35.4272 26.16 34.8777 25.9324
C34.4726 25.5274 34.0676 25.1223 33.84 24.5728
C33.84 24 33.84 23.4272 34.0676 22.8777
C34.4726 22.4726 34.8777 22.0676 35.4272 21.84
C36 21.84 36.5728 21.84 37.1223 22.0676
C37.5274 22.4726 37.9324 22.8777 38.16 23.4272
C38.16 24 38.16 24.5728 37.9324 25.1223
C37.5274 25.5274 37.1223 25.9324 36.5728 26.16
z

M48 26.4
C48.6365 26.4 49.247 26.1471 49.6971 25.6971
C50.1471 25.247 50.4 24.6365 50.4 24
C50.4 23.3635 50.1471 22.753 49.6971 22.3029
C49.247 21.8529 48.6365 21.6 48 21.6
C47.3635 21.6 46.753 21.8529 46.3029 22.3029
C45.8529 22.753 45.6 23.3635 45.6 24
C45.6 24.6365 45.8529 25.247 46.3029 25.6971
C46.753 26.1471 47.3635 26.4 48 26.4
z

M48 26.16
C48 26.16 47.4272 26.16 46.8777 25.9324
C46.4726 25.5274 46.0676 25.1223 45.84 24.5728
C45.84 24 45.84 23.4272 46.0676 22.8777
C46.4726 22.4726 46.8777 22.0676 47.4272 21.84
C48 21.84 48.5728 21.84 49.1223 22.0676
C49.5274 22.4726 49.9324 22.8777 50.16 23.4272
C50.16 24 50.16 24.5728 49.9324 25.1223
C49.5274 25.5274 49.1223 25.9324 48.5728 26.16
z

M60 26.4
C60.6365 26.4 61.247 26.1471 61.6971 25.6971
C62.1471 25.247 62.4 24.6365 62.4 24
C62.4 23.3635 62.1471 22.753 61.6971 22.3029
C61.247 21.8529 60.6365 21.6 60 21.6
C59.3635 21.6 58.753 21.8529 58.3029 22.3029
C57.8529 22.753 57.6 23.3635 57.6 24
C57.6 24.6365 57.8529 25.247 58.3029 25.6971
C58.753 26.1471 59.3635 26.4 60 26.4
z

M60 26.16
C60 26.16 59.4272 26.16 58.8777 25.9324
C58.4726 25.5274 58.0676 25.1223 57.84 24.5728
C57.84 24 57.84 23.4272 58.0676 22.8777
C58.4726 22.4726 58.8777 22.0676 59.4272 21.84
C60 21.84 60.5728 21.84 61.1223 22.0676
C61.5274 22.4726 61.9324 22.8777 62.16 23.4272
C62.16 24 62.16 24.5728 61.9324 25.1223
C61.5274 25.5274 61.1223 25.9324 60.5728 26.16
z

M72 26.4
C72.6365 26.4 73.247 26.1471 73.6971 25.6971
C74.1471 25.247 74.4 24.6365 74.4 24
C74.4 23.3635 74.1471 22.753 73.6971 22.3029
C73.247 21.8529 72.6365 21.6 72 21.6
C71.3635 21.6 70.753 21.8529 70.3029 22.3029
C69.8529 22.753 69.6 23.3635 69.6 24
C69.6 24.6365 69.8529 25.247 70.3029 25.6971
C70.753 26.1471 71.3635 26.4 72 26.4
z

M72 26.16
C72 26.16 71.4272 26.16 70.8777 25.9324
C70.4726 25.5274 70.0676 25.1223 69.84 24.5728
C69.84 24 69.84 23.4272 70.0676 22.8777
C70.4726 22.4726 70.8777 22.0676 71.4272 21.84
C72 21.84 72.5728 21.84 73.1223 22.0676
C73.5274 22.4726 73.9324 22.8777 74.16 23.4272
C74.16 24 74.16 24.5728 73.9324 25.1223
C73.5274 25.5274 73.1223 25.9324 72.5728 26.16
z

M6 14.4
C6.63649 14.4 7.24699 14.1471 7.69706 13.6971
C8.14712 13.247 8.4 12.6365 8.4 12
C8.4 11.3635 8.14712 10.753 7.69706 10.3029
C7.24699 9.85288 6.63649 9.6 6 9.6
C5.36351 9.6 4.75301 9.85288 4.30294 10.3029
C3.85288 10.753 3.6 11.3635 3.6 12
C3.6 12.6365 3.85288 13.247 4.30294 13.6971
C4.75301 14.1471 5.36351 14.4 6 14.4
z

M6 14.16
C6 14.16 5.42716 14.16 4.87771 13.9324
C4.47265 13.5274 4.06759 13.1223 3.84 12.5728
C3.84 12 3.84 11.4272 4.06759 10.8777
C4.47265 10.4726 4.87771 10.0676 5.42716 9.84
C6 9.84 6.57284 9.84 7.12229 10.0676
C7.52735 10.4726 7.93241 10.8777 8.16 11.4272
C8.16 12 8.16 12.5728 7.93241 13.1223
C7.52735 13.5274 7.12229 13.9324 6.57284 14.16
z

M18 14.4
C18.6365 14.4 19.247 14.1471 19.6971 13.6971
C20.1471 13.247 20.4 12.6365 20.4 12
C20.4 11.3635 20.1471 10.753 19.6971 10.3029
C19.247 9.85288 18.6365 9.6 18 9.6
C17.3635 9.6 16.753 9.85288 16.3029 10.3029
C15.8529 10.753 15.6 11.3635 15.6 12
C15.6 12.6365 15.8529 13.247 16.3029 13.6971
C16.753 14.1471 17.3635 14.4 18 14.4
z

M18 14.16
C18 14.16 17.4272 14.16 16.8777 13.9324
C16.4726 13.5274 16.0676 13.1223 15.84 12.5728
C15.84 12 15.84 11.4272 16.0676 10.8777
C16.4726 10.4726 16.8777 10.0676 17.4272 9.84
C18 9.84 18.5728 9.84 19.1223 10.0676
C19.5274 10.4726 19.9324 10.8777 20.16 11.4272
C20.16 12 20.16 12.5728 19.9324 13.1223
C19.5274 13.5274 19.1223 13.9324 18.5728 14.16
z

M30 14.4
C30.6365 14.4 31.247 14.1471 31.6971 13.6971
C32.1471 13.247 32.4 12.6365 32.4 12
C32.4 11.3635 32.1471 10.753 31.6971 10.3029
C31.247 9.85288 30.6365 9.6 30 9.6
C29.3635 9.6 28.753 9.85288 28.3029 10.3029
C27.8529 10.753 27.6 11.3635 27.6 12
C27.6 12.6365 27.8529 13.247 28.3029 13.6971
C28.753 14.1471 29.3635 14.4 30 14.4
z

M30 14.16
C30 14.16 29.4272 14.16 28.8777 13.9324
C28.4726 13.5274 28.0676 13.1223 27.84 12.5728
C27.84 12 27.84 11.4272 28.0676 10.8777
C28.4726 10.4726 28.8777 10.0676 29.4272 9.84
C30 9.84 30.5728 9.84 31.1223 10.0676
C31.5274 10.4726 31.9324 10.8777 32.16 11.4272
C32.16 12 32.16 12.5728 31.9324 13.1223
C31.5274 13.5274 31.1223 13.9324 30.5728 14.16
z

M42 14.4
C42.6365 14.4 43.247 14.1471 43.6971 13.6971
C44.1471 13.247 44.4 12.6365 44.4 12
C44.4 11.3635 44.1471 10.753 43.6971 10.3029
C43.247 9.85288 42.6365 9.6 42 9.6
C41.3635 9.6 40.753 9.85288 40.3029 10.3029
C39.8529 10.753 39.6 11.3635 39.6 12
C39.6 12.6365 39.8529 13.247 40.3029 13.6971
C40.753 14.1471 41.3635 14.4 42 14.4
z

M42 14.16
C42 14.16 41.4272 14.16 40.8777 13.9324
C40.4726 13.5274 40.0676 13.1223 39.84 12.5728
C39.84 12 39.84 11.4272 40.0676 10.8777
C40.4726 10.4726 40.8777 10.0676 41.4272 9.84
C42 9.84 42.5728 9.84 43.1223 10.0676
C43.5274 10.4726 43.9324 10.8777 44.16 11.4272
C44.16 12 44.16 12.5728 43.9324 13.1223
C43.5274 13.5274 43.1223 13.9324 42.5728 14.16
z

M54 14.4
C54.6365 14.4 55.247 14.1471 55.6971 13.6971
C56.1471 13.247 56.4 12.6365 56.4 12
C56.4 11.3635 56.1471 10.753 55.6971 10.3029
C55.247 9.85288 54.6365 9.6 54 9.6
C53.3635 9.6 52.753 9.85288 52.3029 10.3029
C51.8529 10.753 51.6 11.3635 51.6 12
C51.6 12.6365 51.8529 13.247 52.3029 13.6971
C52.753 14.1471 53.3635 14.4 54 14.4
z

M54 14.16
C54 14.16 53.4272 14.16 52.8777 13.9324
C52.4726 13.5274 52.0676 13.1223 51.84 12.5728
C51.84 12 51.84 11.4272 52.0676 10.8777
C52.4726 10.4726 52.8777 10.0676 53.4272 9.84
C54 9.84 54.5728 9.84 55.1223 10.0676
C55.5274 10.4726 55.9324 10.8777 56.16 11.4272
C56.16 12 56.16 12.5728 55.9324 13.1223
C55.5274 13.5274 55.1223 13.9324 54.5728 14.16
z

M66 14.4
C66.6365 14.4 67.247 14.1471 67.6971 13.6971
C68.1471 13.247 68.4 12.6365 68.4 12
C68.4 11.3635 68.1471 10.753 67.6971 10.3029
C67.247 9.85288 66.6365 9.6 66 9.6
C65.3635 9.6 64.753 9.85288 64.3029 10.3029
C63.8529 10.753 63.6 11.3635 63.6 12
C63.6 12.6365 63.8529 13.247 64.3029 13.6971
C64.753 14.1471 65.3635 14.4 66 14.4
z

M66 14.16
C66 14.16 65.4272 14.16 64.8777 13.9324
C64.4726 13.5274 64.0676 13.1223 63.84 12.5728
C63.84 12 63.84 11.4272 64.0676 10.8777
C64.4726 10.4726 64.8777 10.0676 65.4272 9.84
C66 9.84 66.5728 9.84 67.1223 10.0676
C67.5274 10.4726 67.9324 10.8777 68.16 11.4272
C68.16 12 68.16 12.5728 67.9324 13.1223
C67.5274 13.5274 67.1223 13.9324 66.5728 14.16
z

M0 2.4
C0.636487 2.4 1.24699 2.14712 1.69706 1.69706
C2.14712 1.24699 2.4 0.636487 2.4 0
C2.4 -0.636487 2.14712 -1.24699 1.69706 -1.69706
C1.24699 -2.14712 0.636487 -2.4 0 -2.4
C-0.636487 -2.4 -1.24699 -2.14712 -1.69706 -1.69706
C-2.14712 -1.24699 -2.4 -0.636487 -2.4 0
C-2.4 0.636487 -2.14712 1.24699 -1.69706 1.69706
C-1.24699 2.14712 -0.636487 2.4 0 2.4
z

M0 2.16
C0 2.16 -0.572839 2.16 -1.12229 1.93241
C-1.52735 1.52735 -1.93241 1.12229 -2.16 0.572839
C-2.16 0 -2.16 -0.572839 -1.93241 -1.12229
C-1.52735 -1.52735 -1.12229 -1.93241 -0.572839 -2.16
C0 -2.16 0.572839 -2.16 1.12229 -1.93241
C1.52735 -1.52735 1.93241 -1.12229 2.16 -0.572839
C2.16 0 2.16 0.572839 1.93241 1.12229
C1.52735 1.52735 1.12229 1.93241 0.572839 2.16
z

M12 2.4
C12.6365 2.4 13.247 2.14712 13.6971 1.69706
C14.1471 1.24699 14.4 0.636487 14.4 0
C14.4 -0.636487 14.1471 -1.24699 13.6971 -1.69706
C13.247 -2.14712 12.6365 -2.4 12 -2.4
C11.3635 -2.4 10.753 -2.14712 10.3029 -1.69706
C9.85288 -1.24699 9.6 -0.636487 9.6 0
C9.6 0.636487 9.85288 1.24699 10.3029 1.69706
C10.753 2.14712 11.3635 2.4 12 2.4
z

M12 2.16
C12 2.16 11.4272 2.16 10.8777 1.93241
C10.4726 1.52735 10.0676 1.12229 9.84 0.572839
C9.84 0 9.84 -0.572839 10.0676 -1.12229
C10.4726 -1.52735 10.8777 -1.93241 11.4272 -2.16
C12 -2.16 12.5728 -2.16 13.1223 -1.93241
C13.5274 -1.52735 13.9324 -1.12229 14.16 -0.572839
C14.16 0 14.16 0.572839 13.9324 1.12229
C13.5274 1.52735 13.1223 1.93241 12.5728 2.16
z

M24 2.4
C24.6365 2.4 25.247 2.14712 25.6971 1.69706
C26.1471 1.24699 26.4 0.636487 26.4 0
C26.4 -0.636487 26.1471 -1.24699 25.6971 -1.69706
C25.247 -2.14712 24.6365 -2.4 24 -2.4
C23.3635 -2.4 22.753 -2.14712 22.3029 -1.69706
C21.8529 -1.24699 21.6 -0.636487 21.6 0
C21.6 0.636487 21.8529 1.24699 22.3029 1.69706
C22.753 2.14712 23.3635 2.4 24 2.4
z

M24 2.16
C24 2.16 23.4272 2.16 22.8777 1.93241
C22.4726 1.52735 22.0676 1.12229 21.84 0.572839
C21.84 0 21.84 -0.572839 22.0676 -1.12229
C22.4726 -1.52735 22.8777 -1.93241 23.4272 -2.16
C24 -2.16 24.5728 -2.16 25.1223 -1.93241
C25.5274 -1.52735 25.9324 -1.12229 26.16 -0.572839
C26.16 0 26.16 0.572839 25.9324 1.12229
C25.5274 1.52735 25.1223 1.93241 24.5728 2.16
z

M36 2.4
C36.6365 2.4 37.247 2.14712 37.6971 1.69706
C38.1471 1.24699 38.4 0.636487 38.4 0
C38.4 -0.636487 38.1471 -1.24699 37.6971 -1.69706
C37.247 -2.14712 36.6365 -2.4 36 -2.4
C35.3635 -2.4 34.753 -2.14712 34.3029 -1.69706
C33.8529 -1.24699 33.6 -0.636487 33.6 0
C33.6 0.636487 33.8529 1.24699 34.3029 1.69706
C34.753 2.14712 35.3635 2.4 36 2.4
z

M36 2.16
C36 2.16 35.4272 2.16 34.8777 1.93241
C34.4726 1.52735 34.0676 1.12229 33.84 0.572839
C33.84 0 33.84 -0.572839 34.0676 -1.12229
C34.4726 -1.52735 34.8777 -1.93241 35.4272 -2.16
C36 -2.16 36.5728 -2.16 37.1223 -1.93241
C37.5274 -1.52735 37.9324 -1.12229 38.16 -0.572839
C38.16 0 38.16 0.572839 37.9324 1.12229
C37.5274 1.52735 37.1223 1.93241 36.5728 2.16
z

M48 2.4
C48.6365 2.4 49.247 2.14712 49.6971 1.69706
C50.1471 1.24699 50.4 0.636487 50.4 0
C50.4 -0.636487 50.1471 -1.24699 49.6971 -1.69706
C49.247 -2.14712 48.6365 -2.4 48 -2.4
C47.3635 -2.4 46.753 -2.14712 46.3029 -1.69706
C45.8529 -1.24699 45.6 -0.636487 45.6 0
C45.6 0.636487 45.8529 1.24699 46.3029 1.69706
C46.753 2.14712 47.3635 2.4 48 2.4
z

M48 2.16
C48 2.16 47.4272 2.16 46.8777 1.93241
C46.4726 1.52735 46.0676 1.12229 45.84 0.572839
C45.84 0 45.84 -0.572839 46.0676 -1.12229
C46.4726 -1.52735 46.8777 -1.93241 47.4272 -2.16
C48 -2.16 48.5728 -2.16 49.1223 -1.93241
C49.5274 -1.52735 49.9324 -1.12229 50.16 -0.572839
C50.16 0 50.16 0.572839 49.9324 1.12229
C49.5274 1.52735 49.1223 1.93241 48.5728 2.16
z

M60 2.4
C60.6365 2.4 61.247 2.14712 61.6971 1.69706
C62.1471 1.24699 62.4 0.636487 62.4 0
C62.4 -0.636487 62.1471 -1.24699 61.6971 -1.69706
C61.247 -2.14712 60.6365 -2.4 60 -2.4
C59.3635 -2.4 58.753 -2.14712 58.3029 -1.69706
C57.8529 -1.24699 57.6 -0.636487 57.6 0
C57.6 0.636487 57.8529 1.24699 58.3029 1.69706
C58.753 2.14712 59.3635 2.4 60 2.4
z

M60 2.16
C60 2.16 59.4272 2.16 58.8777 1.93241
C58.4726 1.52735 58.0676 1.12229 57.84 0.572839
C57.84 0 57.84 -0.572839 58.0676 -1.12229
C58.4726 -1.52735 58.8777 -1.93241 59.4272 -2.16
C60 -2.16 60.5728 -2.16 61.1223 -1.93241
C61.5274 -1.52735 61.9324 -1.12229 62.16 -0.572839
C62.16 0 62.16 0.572839 61.9324 1.12229
C61.5274 1.52735 61.1223 1.93241 60.5728 2.16
z

M72 2.4
C72.6365 2.4 73.247 2.14712 73.6971 1.69706
C74.1471 1.24699 74.4 0.636487 74.4 0
C74.4 -0.636487 74.1471 -1.24699 73.6971 -1.69706
C73.247 -2.14712 72.6365 -2.4 72 -2.4
C71.3635 -2.4 70.753 -2.14712 70.3029 -1.69706
C69.8529 -1.24699 69.6 -0.636487 69.6 0
C69.6 0.636487 69.8529 1.24699 70.3029 1.69706
C70.753 2.14712 71.3635 2.4 72 2.4
z

M72 2.16
C72 2.16 71.4272 2.16 70.8777 1.93241
C70.4726 1.52735 70.0676 1.12229 69.84 0.572839
C69.84 0 69.84 -0.572839 70.0676 -1.12229
C70.4726 -1.52735 70.8777 -1.93241 71.4272 -2.16
C72 -2.16 72.5728 -2.16 73.1223 -1.93241
C73.5274 -1.52735 73.9324 -1.12229 74.16 -0.572839
C74.16 0 74.16 0.572839 73.9324 1.12229
C73.5274 1.52735 73.1223 1.93241 72.5728 2.16
z
" style="fill:#000000;stroke:#000000;stroke-linecap:butt;stroke-linejoin:miter;stroke-width:1.0;"/>
  </pattern>
 </defs>
</svg>
