<?xml version="1.0" encoding="UTF-8" standalone="no"?>
<!-- Created with Inkscape (http://www.inkscape.org/) -->

<svg
   xmlns:dc="http://purl.org/dc/elements/1.1/"
   xmlns:cc="http://creativecommons.org/ns#"
   xmlns:rdf="http://www.w3.org/1999/02/22-rdf-syntax-ns#"
   xmlns:svg="http://www.w3.org/2000/svg"
   xmlns="http://www.w3.org/2000/svg"
   xmlns:sodipodi="http://sodipodi.sourceforge.net/DTD/sodipodi-0.dtd"
   xmlns:inkscape="http://www.inkscape.org/namespaces/inkscape"
   width="547"
   height="192"
   id="svg2"
   version="1.1"
   inkscape:version="0.48.5 r10040"
   sodipodi:docname="running_example.pdf">
  <defs
     id="defs4" />
  <sodipodi:namedview
     id="base"
     pagecolor="#ffffff"
     bordercolor="#666666"
     borderopacity="1.0"
     inkscape:pageopacity="0.0"
     inkscape:pageshadow="2"
     inkscape:zoom="1.9651042"
     inkscape:cx="272.0681"
     inkscape:cy="42.116756"
     inkscape:document-units="px"
     inkscape:current-layer="layer1"
     showgrid="true"
     fit-margin-top="0"
     fit-margin-left="0"
     fit-margin-right="0"
     fit-margin-bottom="0"
     inkscape:window-width="1261"
     inkscape:window-height="746"
     inkscape:window-x="0"
     inkscape:window-y="0"
     inkscape:window-maximized="0">
    <inkscape:grid
       type="xygrid"
       id="grid2985"
       empspacing="5"
       visible="true"
       enabled="true"
       snapvisiblegridlinesonly="true"
       originx="-59px"
       originy="-789px" />
  </sodipodi:namedview>
  <metadata
     id="metadata7">
    <rdf:RDF>
      <cc:Work
         rdf:about="">
        <dc:format>image/svg+xml</dc:format>
        <dc:type
           rdf:resource="http://purl.org/dc/dcmitype/StillImage" />
        <dc:title></dc:title>
      </cc:Work>
    </rdf:RDF>
  </metadata>
  <g
     inkscape:label="Layer 1"
     inkscape:groupmode="layer"
     id="layer1"
     transform="translate(-59,-71.36218)">
    <rect
       style="fill:none;stroke:#000000;stroke-width:1.5;stroke-miterlimit:4;stroke-opacity:1;stroke-dasharray:1.5, 1.5;stroke-dashoffset:0"
       id="rect4059"
       width="80"
       height="40"
       x="240.60001"
       y="60.599998"
       transform="translate(29.4,71.762183)" />
    <rect
       style="fill:none;stroke:#000000;stroke-width:1.5;stroke-miterlimit:4;stroke-opacity:1;stroke-dasharray:1.5, 1.5;stroke-dashoffset:0"
       id="rect4061"
       width="40"
       height="40"
       x="130.60001"
       y="60.599998"
       transform="translate(29.4,71.762183)" />
    <rect
       style="fill:none;stroke:#000000;stroke-width:1.5;stroke-miterlimit:4;stroke-opacity:1;stroke-dasharray:1.5, 1.5;stroke-dashoffset:0"
       id="rect4063"
       width="40"
       height="40"
       x="130.60001"
       y="150.59999"
       transform="translate(29.4,71.762183)" />
    <rect
       style="fill:none;stroke:#000000;stroke-width:1.5;stroke-miterlimit:4;stroke-opacity:1;stroke-dasharray:1.5, 1.5;stroke-dashoffset:0"
       id="rect4065"
       width="40"
       height="40"
       x="240.60001"
       y="150.59999"
       transform="translate(29.4,71.762183)" />
    <rect
       style="fill:none;stroke:#000000;stroke-width:1.5;stroke-miterlimit:4;stroke-opacity:1;stroke-dasharray:1.5, 1.5;stroke-dashoffset:0"
       id="rect4067"
       width="40"
       height="40"
       x="430.60001"
       y="150.59999"
       transform="translate(29.4,71.762183)" />
    <rect
       style="fill:none;stroke:#000000;stroke-width:1.5;stroke-miterlimit:4;stroke-opacity:1;stroke-dasharray:1.5, 1.5;stroke-dashoffset:0"
       id="rect4069"
       width="40"
       height="40"
       x="430.60001"
       y="60.599998"
       transform="translate(29.4,71.762183)" />
    <path
       style="fill:none;stroke:#000000;stroke-width:2;stroke-linecap:butt;stroke-linejoin:miter;stroke-miterlimit:4;stroke-opacity:1;stroke-dasharray:none"
       d="m 30.6,60.599997 210,0 0,-60.00000005 40,0 0,60.00000005 80,-60.00000005 40,0 -80,60.00000005 110,0 0,-60.00000005 40,0 0,150.00000305 105,0 0,40 -545,0 0,-40 100,0 0,-50 -100,0 z"
       id="path3181"
       inkscape:connector-curvature="0"
       transform="translate(29.4,71.762183)"
       sodipodi:nodetypes="cccccccccccccccccccc" />
    <path
       style="fill:none;stroke:#000000;stroke-width:2;stroke-linecap:butt;stroke-linejoin:miter;stroke-miterlimit:4;stroke-opacity:1;stroke-dasharray:none"
       d="m 170.6,100.6 0,50 70,0 0,-50 z"
       id="path3183"
       inkscape:connector-curvature="0"
       transform="translate(29.4,71.762183)" />
    <path
       style="fill:none;stroke:#000000;stroke-width:2;stroke-linecap:butt;stroke-linejoin:miter;stroke-miterlimit:4;stroke-opacity:1;stroke-dasharray:none"
       d="m 280.6,100.6 0,50 150,0 0,-50 z"
       id="path3185"
       inkscape:connector-curvature="0"
       transform="translate(29.4,71.762183)" />
    <path
       style="fill:none;stroke:#000000;stroke-width:2;stroke-linecap:butt;stroke-linejoin:miter;stroke-miterlimit:4;stroke-opacity:1;stroke-dasharray:8, 8;stroke-dashoffset:0"
       d="m 260.6,60.599997 0,-50"
       id="path3957"
       inkscape:connector-curvature="0"
       transform="translate(29.4,71.762183)" />
    <path
       style="fill:none;stroke:#000000;stroke-width:2;stroke-linecap:butt;stroke-linejoin:miter;stroke-miterlimit:4;stroke-opacity:1;stroke-dasharray:8, 8;stroke-dashoffset:0"
       d="M 330,132.36218 403,77.633785"
       id="path3963"
       inkscape:connector-curvature="0" />
    <path
       style="fill:none;stroke:#000000;stroke-width:2;stroke-linecap:butt;stroke-linejoin:miter;stroke-miterlimit:4;stroke-opacity:1;stroke-dasharray:8, 8;stroke-dashoffset:0"
       d="m 320.6,80.599997 110,0"
       id="path3965"
       inkscape:connector-curvature="0"
       transform="translate(29.4,71.762183)" />
    <path
       style="fill:none;stroke:#000000;stroke-width:2;stroke-linecap:butt;stroke-linejoin:miter;stroke-miterlimit:4;stroke-opacity:1;stroke-dasharray:8, 8;stroke-dashoffset:0"
       d="m 450.6,10.599997 0,50"
       id="path3967"
       inkscape:connector-curvature="0"
       transform="translate(29.4,71.762183)" />
    <path
       style="fill:none;stroke:#000000;stroke-width:2;stroke-linecap:butt;stroke-linejoin:miter;stroke-miterlimit:4;stroke-opacity:1;stroke-dasharray:8, 8;stroke-dashoffset:0"
       d="m 450.6,100.6 0,50"
       id="path3969"
       inkscape:connector-curvature="0"
       transform="translate(29.4,71.762183)" />
    <path
       style="fill:none;stroke:#000000;stroke-width:2;stroke-linecap:butt;stroke-linejoin:miter;stroke-miterlimit:4;stroke-opacity:1;stroke-dasharray:8, 8;stroke-dashoffset:0"
       d="m 260.6,100.6 0,50"
       id="path3971"
       inkscape:connector-curvature="0"
       transform="translate(29.4,71.762183)" />
    <path
       style="fill:none;stroke:#000000;stroke-width:2;stroke-linecap:butt;stroke-linejoin:miter;stroke-miterlimit:4;stroke-opacity:1;stroke-dasharray:8, 8;stroke-dashoffset:0"
       d="m 150.6,100.6 0,50"
       id="path3973"
       inkscape:connector-curvature="0"
       transform="translate(29.4,71.762183)" />
    <path
       style="fill:none;stroke:#000000;stroke-width:2;stroke-linecap:butt;stroke-linejoin:miter;stroke-miterlimit:4;stroke-opacity:1;stroke-dasharray:8, 8;stroke-dashoffset:0"
       d="m 40.6,80.599997 90,0"
       id="path3975"
       inkscape:connector-curvature="0"
       transform="translate(29.4,71.762183)" />
    <path
       style="fill:none;stroke:#000000;stroke-width:2;stroke-linecap:butt;stroke-linejoin:miter;stroke-miterlimit:4;stroke-opacity:1;stroke-dasharray:8, 8;stroke-dashoffset:0"
       d="m 170.6,80.599997 70,0"
       id="path3977"
       inkscape:connector-curvature="0"
       transform="translate(29.4,71.762183)" />
    <path
       style="fill:none;stroke:#000000;stroke-width:2;stroke-linecap:butt;stroke-linejoin:miter;stroke-miterlimit:4;stroke-opacity:1;stroke-dasharray:8, 8;stroke-dashoffset:0"
       d="m 40.6,170.6 90,0"
       id="path3979"
       inkscape:connector-curvature="0"
       transform="translate(29.4,71.762183)" />
    <path
       style="fill:none;stroke:#000000;stroke-width:2;stroke-linecap:butt;stroke-linejoin:miter;stroke-miterlimit:4;stroke-opacity:1;stroke-dasharray:8, 8;stroke-dashoffset:0"
       d="m 170.6,170.6 70,0"
       id="path3981"
       inkscape:connector-curvature="0"
       transform="translate(29.4,71.762183)" />
    <path
       style="fill:#ff8080;stroke:#000000;stroke-width:2;stroke-linecap:butt;stroke-linejoin:miter;stroke-miterlimit:4;stroke-opacity:1;stroke-dasharray:8, 8;stroke-dashoffset:0"
       d="m 280.6,170.6 150,0"
       id="path3983"
       inkscape:connector-curvature="0"
       transform="translate(29.4,71.762183)" />
    <path
       style="fill:none;stroke:#000000;stroke-width:2;stroke-linecap:butt;stroke-linejoin:miter;stroke-miterlimit:4;stroke-opacity:1;stroke-dasharray:8, 8;stroke-dashoffset:0"
       d="m 470.6,170.6 100,0"
       id="path3985"
       inkscape:connector-curvature="0"
       transform="translate(29.4,71.762183)"
       sodipodi:nodetypes="cc" />
    <path
       style="fill:#4d4d4d;stroke:#4d4d4d;stroke-width:1.00000012px;stroke-linecap:butt;stroke-linejoin:miter;stroke-opacity:1"
       d="m 121.9973,140.36218 0,5 -9.99615,0 0,2.5 -3.99845,-5 3.99845,-5 0,2.5 z"
       id="path3987"
       inkscape:connector-curvature="0" />
    <path
       inkscape:connector-curvature="0"
       id="path3989"
       d="m 108.0027,159.36218 0,5 9.99615,0 0,2.5 3.99845,-5 -3.99845,-5 0,2.5 z"
       style="fill:#4d4d4d;stroke:#4d4d4d;stroke-width:1.00000012px;stroke-linecap:butt;stroke-linejoin:miter;stroke-opacity:1" />
    <path
       inkscape:connector-curvature="0"
       id="path3991"
       d="m 241.9973,140.36218 0,5 -9.99615,0 0,2.5 -3.99845,-5 3.99845,-5 0,2.5 z"
       style="fill:#4d4d4d;stroke:#4d4d4d;stroke-width:1.00000012px;stroke-linecap:butt;stroke-linejoin:miter;stroke-opacity:1" />
    <path
       style="fill:#4d4d4d;stroke:#4d4d4d;stroke-width:1.00000012px;stroke-linecap:butt;stroke-linejoin:miter;stroke-opacity:1"
       d="m 228.0027,159.36218 0,5 9.99615,0 0,2.5 3.99845,-5 -3.99845,-5 0,2.5 z"
       id="path3993"
       inkscape:connector-curvature="0" />
    <path
       style="fill:#4d4d4d;stroke:#4d4d4d;stroke-width:1.00000012px;stroke-linecap:butt;stroke-linejoin:miter;stroke-opacity:1"
       d="m 411.9973,140.36218 0,5 -9.99615,0 0,2.5 -3.99845,-5 3.99845,-5 0,2.5 z"
       id="path3995"
       inkscape:connector-curvature="0" />
    <path
       inkscape:connector-curvature="0"
       id="path3997"
       d="m 398.0027,159.36218 0,5 9.99615,0 0,2.5 3.99845,-5 -3.99845,-5 0,2.5 z"
       style="fill:#4d4d4d;stroke:#4d4d4d;stroke-width:1.00000012px;stroke-linecap:butt;stroke-linejoin:miter;stroke-opacity:1" />
    <path
       inkscape:connector-curvature="0"
       id="path4007"
       d="m 121.9973,230.36218 0,5 -9.99615,0 0,2.5 -3.99845,-5 3.99845,-5 0,2.5 z"
       style="fill:#4d4d4d;stroke:#4d4d4d;stroke-width:1.00000012px;stroke-linecap:butt;stroke-linejoin:miter;stroke-opacity:1" />
    <path
       style="fill:#4d4d4d;stroke:#4d4d4d;stroke-width:1.00000012px;stroke-linecap:butt;stroke-linejoin:miter;stroke-opacity:1"
       d="m 108.0027,249.36218 0,5 9.99615,0 0,2.5 3.99845,-5 -3.99845,-5 0,2.5 z"
       id="path4009"
       inkscape:connector-curvature="0" />
    <path
       style="fill:#4d4d4d;stroke:#4d4d4d;stroke-width:1.00000012px;stroke-linecap:butt;stroke-linejoin:miter;stroke-opacity:1"
       d="m 556.9973,230.36218 0,5 -9.99615,0 0,2.5 -3.99845,-5 3.99845,-5 0,2.5 z"
       id="path4011"
       inkscape:connector-curvature="0" />
    <path
       inkscape:connector-curvature="0"
       id="path4013"
       d="m 543.0027,249.36218 0,5 9.99615,0 0,2.5 3.99845,-5 -3.99845,-5 0,2.5 z"
       style="fill:#4d4d4d;stroke:#4d4d4d;stroke-width:1.00000012px;stroke-linecap:butt;stroke-linejoin:miter;stroke-opacity:1" />
    <g
       id="g4019"
       transform="matrix(0,1,1,0,187.13782,-180.64052)">
      <path
         style="fill:#4d4d4d;stroke:#4d4d4d;stroke-width:1.00000012px;stroke-linecap:butt;stroke-linejoin:miter;stroke-opacity:1"
         d="m 281.0054,95.86218 0,-5 9.99615,0 0,-2.5 3.99845,5 -3.99845,5 0,-2.5 z"
         id="path4015"
         inkscape:connector-curvature="0" />
      <path
         inkscape:connector-curvature="0"
         id="path4017"
         d="m 295,114.86218 0,-5 -9.99615,0 0,-2.5 -3.99845,5 3.99845,5 0,-2.5 z"
         style="fill:#4d4d4d;stroke:#4d4d4d;stroke-width:1.00000012px;stroke-linecap:butt;stroke-linejoin:miter;stroke-opacity:1" />
    </g>
    <g
       transform="matrix(0,1,1,0,377.13782,-180.64052)"
       id="g4041">
      <path
         inkscape:connector-curvature="0"
         id="path4043"
         d="m 281.0054,95.86218 0,-5 9.99615,0 0,-2.5 3.99845,5 -3.99845,5 0,-2.5 z"
         style="fill:#4d4d4d;stroke:#4d4d4d;stroke-width:1.00000012px;stroke-linecap:butt;stroke-linejoin:miter;stroke-opacity:1" />
      <path
         style="fill:#4d4d4d;stroke:#4d4d4d;stroke-width:1.00000012px;stroke-linecap:butt;stroke-linejoin:miter;stroke-opacity:1"
         d="m 295,114.86218 0,-5 -9.99615,0 0,-2.5 -3.99845,5 3.99845,5 0,-2.5 z"
         id="path4045"
         inkscape:connector-curvature="0" />
    </g>
    <g
       id="g4047"
       transform="matrix(0,1,1,0,377.13782,-90.640517)">
      <path
         style="fill:#4d4d4d;stroke:#4d4d4d;stroke-width:1.00000012px;stroke-linecap:butt;stroke-linejoin:miter;stroke-opacity:1"
         d="m 281.0054,95.86218 0,-5 9.99615,0 0,-2.5 3.99845,5 -3.99845,5 0,-2.5 z"
         id="path4049"
         inkscape:connector-curvature="0" />
      <path
         inkscape:connector-curvature="0"
         id="path4051"
         d="m 295,114.86218 0,-5 -9.99615,0 0,-2.5 -3.99845,5 3.99845,5 0,-2.5 z"
         style="fill:#4d4d4d;stroke:#4d4d4d;stroke-width:1.00000012px;stroke-linecap:butt;stroke-linejoin:miter;stroke-opacity:1" />
    </g>
    <g
       transform="matrix(-0.55890235,0.46944969,0.46944969,0.55890235,477.81593,-86.634237)"
       id="g4053">
      <path
         inkscape:connector-curvature="0"
         id="path4055"
         d="m 281.0054,95.86218 0,-5 9.99615,0 0,-2.5 3.99845,5 -3.99845,5 0,-2.5 z"
         style="fill:#4d4d4d;stroke:#4d4d4d;stroke-width:1.37004972px;stroke-linecap:butt;stroke-linejoin:miter;stroke-opacity:1" />
      <path
         style="fill:#4d4d4d;stroke:#4d4d4d;stroke-width:1.37004972px;stroke-linecap:butt;stroke-linejoin:miter;stroke-opacity:1"
         d="m 295,114.86218 0,-5 -9.99615,0 0,-2.5 -3.99845,5 3.99845,5 0,-2.5 z"
         id="path4057"
         inkscape:connector-curvature="0" />
    </g>
    <g
       id="g4509"
       transform="matrix(1.5870207,0,0,1.5870207,-106.77392,-100.78105)">
      <g
         transform="matrix(0,0.07715919,-0.07715919,0,184.73688,175.90344)"
         id="g4310">
        <path
           inkscape:connector-curvature="0"
           d="m 310.50975,91.20101 c 0,7.1275 -5.83125,12.95875 -12.95875,12.95875 l -285.0925,0 c -7.1275,0 -12.95875,-5.83125 -12.95875,-12.95875 l 0,-77.7525 c 0,-7.1275 5.83125,-12.95875 12.95875,-12.95875 l 285.0925,0 c 7.1275,0 12.95875,5.83125 12.95875,12.95875 l 0,77.7525 z"
           style="fill:#ffffff;stroke:#000000;stroke-width:8.16638279;stroke-linecap:butt;stroke-linejoin:miter;stroke-miterlimit:4;stroke-opacity:1;stroke-dasharray:none"
           id="path4312" />
        <path
           inkscape:connector-curvature="0"
           d="m 306.19025,91.20101 c 0,4.75125 -3.8875,8.63875 -8.63875,8.63875 l -285.0925,0 c -4.7525,0 -8.64,-3.8875 -8.64,-8.63875 l 0,-77.7525 c 0,-4.75125 3.8875,-8.63875 8.64,-8.63875 l 285.0925,0 c 4.75125,0 8.63875,3.8875 8.63875,8.63875 l 0,77.7525"
           style="fill:#000000;fill-opacity:1;fill-rule:nonzero;stroke:none"
           id="path4314" />
        <path
           inkscape:connector-curvature="0"
           d="m 25.417258,29.647 194.146252,0 -3.78625,-12.11375 c -0.19375,-0.61375 -0.29875,-1.26875 -0.29875,-1.94625 0,-3.56625 2.8925,-6.45875 6.45875,-6.45875 1.375,0 2.64875,0.43 3.69625,1.1625 l 67.5975,42.03375 -67.59875,42.035 c -1.04625,0.73125 -2.32,1.16125 -3.695,1.16125 -3.56625,0 -6.45875,-2.8925 -6.45875,-6.4575 0,-0.67875 0.105,-1.3325 0.29875,-1.9475 l 3.78625,-12.11375 -194.146252,0 0,-45.355"
           style="fill:#ffffff;fill-opacity:1;fill-rule:nonzero;stroke:none"
           id="path4316" />
        <path
           inkscape:connector-curvature="0"
           d="m 48.862368,40.01138 c -3.0725,0 -4.505,1.22875 -5.73375,4.25 -0.82,2.0475 -1.33125,5.2225 -1.33125,8.14 0,3.635 0.7675,7.3725 2.09875,9.575 1.075,1.79125 2.50875,2.66125 4.71,2.66125 2.56,0 4.1475,-1.33 5.325,-4.35125 0.71625,-1.84375 1.33125,-5.2225 1.33125,-7.885 0,-3.99375 -0.87125,-12.39 -6.4,-12.39 m 8.09,26.31625 c -1.9975,2.61125 -4.71125,3.89125 -8.34625,3.89125 -4.86375,0 -7.83375,-1.94625 -9.9325,-6.195 -1.43375,-2.91875 -2.4575,-7.52625 -2.4575,-11.6225 0,-5.73375 1.43375,-10.85375 3.78875,-14.08 1.9975,-2.7125 4.86375,-3.89 8.8575,-3.89 9.57375,0 11.8775,10.23875 11.8775,17.97 0,5.4275 -1.38125,10.85375 -3.7875,13.92625"
           style="fill:#000000;fill-opacity:1;fill-rule:nonzero;stroke:none"
           id="path4318" />
        <path
           inkscape:connector-curvature="0"
           d="m 83.78125,69.60436 -13.20875,-23.3975 0,23.3975 -5.478749,0 0,-34.55875 5.478749,0 12.595,22.06625 0,-22.06625 5.42625,0 0,34.55875 -4.8125,0 z"
           style="fill:#000000;fill-opacity:1;fill-rule:nonzero;stroke:none"
           id="path4320" />
        <path
           inkscape:connector-curvature="0"
           d="m 93.59625,69.60436 0,-34.55875 20.3775,0 0,5.4775 -14.89875,0 0,8.4475 10.035,0 0,5.58125 -10.035,0 0,9.47125 15.97375,0 0,5.58125 -21.4525,0 z"
           style="fill:#000000;fill-opacity:1;fill-rule:nonzero;stroke:none"
           id="path4322" />
        <path
           inkscape:connector-curvature="0"
           d="m 157.92612,69.60436 -4.86375,0 -5.4275,-22.16875 -5.375,22.16875 -4.8125,0 -5.12,-34.55875 5.58125,0 2.66125,18.175 4.4025,-18.175 5.32625,0 4.45375,18.175 2.7125,-18.175 5.53,0 -5.06875,34.55875 z"
           style="fill:#000000;fill-opacity:1;fill-rule:nonzero;stroke:none"
           id="path4324" />
        <path
           inkscape:connector-curvature="0"
           d="m 177.07861,44.61949 -3.5325,9.7275 6.91125,0 -3.37875,-9.7275 z m 8.70375,24.985 -3.38,-9.67625 -10.80125,0 -3.38,9.67625 -5.83625,0 11.8775,-34.55875 5.47875,0 11.8775,34.55875 -5.83625,0 z"
           style="fill:#000000;fill-opacity:1;fill-rule:nonzero;stroke:none"
           id="path4326" />
        <path
           inkscape:connector-curvature="0"
           d="m 203.4985,54.55213 0,15.0525 -5.4775,0 0,-15.0525 -12.135,-19.50625 6.55375,0 8.2425,13.31125 8.3975,-13.31125 6.39875,0 -11.98,19.50625 z"
           style="fill:#000000;fill-opacity:1;fill-rule:nonzero;stroke:none"
           id="path4328" />
      </g>
    </g>
    <path
       id="path4529"
       style="fill:#ffffff;stroke:#000000;stroke-width:0.99999994;stroke-linecap:butt;stroke-linejoin:miter;stroke-miterlimit:4;stroke-opacity:1;stroke-dasharray:none"
       d="m 285.23948,178.3201 c -0.87278,0 -1.58684,0.71405 -1.58684,1.58684 l 0,34.9105 c 0,0.87278 0.71406,1.58684 1.58684,1.58684 l 9.52105,0 c 0.87278,0 1.58684,-0.71406 1.58684,-1.58684 l 0,-34.9105 c 0,-0.87279 -0.71406,-1.58684 -1.58684,-1.58684 l -9.52105,0 z"
       inkscape:connector-curvature="0" />
    <path
       id="path4531"
       style="fill:#000000;fill-opacity:1;fill-rule:nonzero;stroke:none"
       d="m 285.23948,178.84903 c -0.5818,0 -1.05784,0.47604 -1.05784,1.05785 l 0,34.9105 c 0,0.58195 0.47604,1.05799 1.05784,1.05799 l 9.52105,0 c 0.5818,0 1.05784,-0.47604 1.05784,-1.05799 l 0,-34.9105 c 0,-0.58181 -0.47604,-1.05785 -1.05784,-1.05785 l -9.52105,0"
       inkscape:connector-curvature="0" />
    <path
       id="path4533"
       style="fill:#ffffff;fill-opacity:1;fill-rule:nonzero;stroke:none"
       d="m 292.77697,213.23059 0,-23.77383 1.48337,0.46364 c 0.0752,0.0237 0.15536,0.0366 0.23832,0.0366 0.4367,0 0.7909,-0.3542 0.7909,-0.79089 0,-0.16838 -0.0527,-0.32435 -0.14236,-0.45262 l -5.14716,-8.27753 -5.14733,8.27768 c -0.0895,0.12812 -0.14219,0.28409 -0.14219,0.45247 0,0.43669 0.35419,0.79089 0.79074,0.79089 0.0831,0 0.16317,-0.0129 0.23848,-0.0366 l 1.48336,-0.46364 0,23.77383 5.55387,0"
       inkscape:connector-curvature="0" />
    <g
       id="g4566"
       transform="matrix(1,0,0,-1,0,401.86522)">
      <path
         inkscape:connector-curvature="0"
         d="m 291.50782,210.35967 c 0,0.37623 -0.15047,0.55165 -0.52043,0.70211 -0.25072,0.10041 -0.63951,0.16302 -0.99677,0.16302 -0.44512,0 -0.90278,-0.094 -1.17249,-0.257 -0.21934,-0.13164 -0.32588,-0.30721 -0.32588,-0.57676 0,-0.31348 0.16287,-0.50787 0.53283,-0.65206 0.22577,-0.0877 0.63951,-0.16302 0.96554,-0.16302 0.48905,0 1.5172,0.10669 1.5172,0.78371 m -3.22251,-0.99065 c -0.31976,0.2446 -0.4765,0.57691 -0.4765,1.02202 0,0.59559 0.23833,0.95927 0.7586,1.21627 0.35741,0.17557 0.92161,0.30093 1.42321,0.30093 0.70212,0 1.32908,-0.17557 1.72414,-0.46395 0.33216,-0.2446 0.47635,-0.59558 0.47635,-1.08462 0,-1.17234 -1.25377,-1.45444 -2.20049,-1.45444 -0.66461,0 -1.32907,0.16914 -1.70531,0.46379"
         style="fill:#000000;fill-opacity:1;fill-rule:nonzero;stroke:none"
         id="path4535" />
      <path
         inkscape:connector-curvature="0"
         d="m 287.88406,206.08374 2.8651,1.61745 -2.8651,0 0,0.67089 4.23183,0 0,-0.67089 -2.70208,-1.5423 2.70208,0 0,-0.66446 -4.23183,0 0,0.58931 z"
         style="fill:#000000;fill-opacity:1;fill-rule:nonzero;stroke:none"
         id="path4537" />
      <path
         inkscape:connector-curvature="0"
         d="m 287.88406,204.88186 4.23183,0 0,-2.49529 -0.67074,0 0,1.8244 -1.03442,0 0,-1.22882 -0.68344,0 0,1.22882 -1.15979,0 0,-1.95604 -0.68344,0 0,2.62693 z"
         style="fill:#000000;fill-opacity:1;fill-rule:nonzero;stroke:none"
         id="path4539" />
      <path
         inkscape:connector-curvature="0"
         d="m 287.88406,197.00446 0,0.59558 2.71464,0.66461 -2.71464,0.65819 0,0.58931 4.23183,0.62696 0,-0.68345 -2.22559,-0.32587 2.22559,-0.5391 0,-0.65222 -2.22559,-0.54538 2.22559,-0.33215 0,-0.67717 -4.23183,0.62069 z"
         style="fill:#000000;fill-opacity:1;fill-rule:nonzero;stroke:none"
         id="path4541" />
      <path
         inkscape:connector-curvature="0"
         d="m 290.94354,194.65917 -1.19116,0.43257 0,-0.84631 1.19116,0.41374 z m -3.05949,-1.0658 1.18488,0.41389 0,1.32265 -1.18488,0.41389 0,0.71467 4.23183,-1.45444 0,-0.67089 -4.23183,-1.45444 0,0.71467 z"
         style="fill:#000000;fill-opacity:1;fill-rule:nonzero;stroke:none"
         id="path4543" />
      <path
         inkscape:connector-curvature="0"
         d="m 289.72726,191.42397 -1.84323,0 0,0.67074 1.84323,0 2.3886,1.48597 0,-0.80253 -1.63001,-1.00932 1.63001,-1.0283 0,-0.78355 -2.3886,1.46699 z"
         style="fill:#000000;fill-opacity:1;fill-rule:nonzero;stroke:none"
         id="path4545" />
    </g>
    <g
       transform="matrix(0,-1.5870207,1.5870207,0,-63.143233,529.1361)"
       id="g4574">
      <g
         id="g4576"
         transform="matrix(0,0.07715919,-0.07715919,0,184.73688,175.90344)">
        <path
           id="path4578"
           style="fill:#ffffff;stroke:#000000;stroke-width:8.16638279;stroke-linecap:butt;stroke-linejoin:miter;stroke-miterlimit:4;stroke-opacity:1;stroke-dasharray:none"
           d="m 310.50975,91.20101 c 0,7.1275 -5.83125,12.95875 -12.95875,12.95875 l -285.0925,0 c -7.1275,0 -12.95875,-5.83125 -12.95875,-12.95875 l 0,-77.7525 c 0,-7.1275 5.83125,-12.95875 12.95875,-12.95875 l 285.0925,0 c 7.1275,0 12.95875,5.83125 12.95875,12.95875 l 0,77.7525 z"
           inkscape:connector-curvature="0" />
        <path
           id="path4580"
           style="fill:#000000;fill-opacity:1;fill-rule:nonzero;stroke:none"
           d="m 306.19025,91.20101 c 0,4.75125 -3.8875,8.63875 -8.63875,8.63875 l -285.0925,0 c -4.7525,0 -8.64,-3.8875 -8.64,-8.63875 l 0,-77.7525 c 0,-4.75125 3.8875,-8.63875 8.64,-8.63875 l 285.0925,0 c 4.75125,0 8.63875,3.8875 8.63875,8.63875 l 0,77.7525"
           inkscape:connector-curvature="0" />
        <path
           id="path4582"
           style="fill:#ffffff;fill-opacity:1;fill-rule:nonzero;stroke:none"
           d="m 25.417258,29.647 194.146252,0 -3.78625,-12.11375 c -0.19375,-0.61375 -0.29875,-1.26875 -0.29875,-1.94625 0,-3.56625 2.8925,-6.45875 6.45875,-6.45875 1.375,0 2.64875,0.43 3.69625,1.1625 l 67.5975,42.03375 -67.59875,42.035 c -1.04625,0.73125 -2.32,1.16125 -3.695,1.16125 -3.56625,0 -6.45875,-2.8925 -6.45875,-6.4575 0,-0.67875 0.105,-1.3325 0.29875,-1.9475 l 3.78625,-12.11375 -194.146252,0 0,-45.355"
           inkscape:connector-curvature="0" />
        <path
           id="path4584"
           style="fill:#000000;fill-opacity:1;fill-rule:nonzero;stroke:none"
           d="m 48.862368,40.01138 c -3.0725,0 -4.505,1.22875 -5.73375,4.25 -0.82,2.0475 -1.33125,5.2225 -1.33125,8.14 0,3.635 0.7675,7.3725 2.09875,9.575 1.075,1.79125 2.50875,2.66125 4.71,2.66125 2.56,0 4.1475,-1.33 5.325,-4.35125 0.71625,-1.84375 1.33125,-5.2225 1.33125,-7.885 0,-3.99375 -0.87125,-12.39 -6.4,-12.39 m 8.09,26.31625 c -1.9975,2.61125 -4.71125,3.89125 -8.34625,3.89125 -4.86375,0 -7.83375,-1.94625 -9.9325,-6.195 -1.43375,-2.91875 -2.4575,-7.52625 -2.4575,-11.6225 0,-5.73375 1.43375,-10.85375 3.78875,-14.08 1.9975,-2.7125 4.86375,-3.89 8.8575,-3.89 9.57375,0 11.8775,10.23875 11.8775,17.97 0,5.4275 -1.38125,10.85375 -3.7875,13.92625"
           inkscape:connector-curvature="0" />
        <path
           id="path4586"
           style="fill:#000000;fill-opacity:1;fill-rule:nonzero;stroke:none"
           d="m 83.78125,69.60436 -13.20875,-23.3975 0,23.3975 -5.478749,0 0,-34.55875 5.478749,0 12.595,22.06625 0,-22.06625 5.42625,0 0,34.55875 -4.8125,0 z"
           inkscape:connector-curvature="0" />
        <path
           id="path4588"
           style="fill:#000000;fill-opacity:1;fill-rule:nonzero;stroke:none"
           d="m 93.59625,69.60436 0,-34.55875 20.3775,0 0,5.4775 -14.89875,0 0,8.4475 10.035,0 0,5.58125 -10.035,0 0,9.47125 15.97375,0 0,5.58125 -21.4525,0 z"
           inkscape:connector-curvature="0" />
        <path
           id="path4590"
           style="fill:#000000;fill-opacity:1;fill-rule:nonzero;stroke:none"
           d="m 157.92612,69.60436 -4.86375,0 -5.4275,-22.16875 -5.375,22.16875 -4.8125,0 -5.12,-34.55875 5.58125,0 2.66125,18.175 4.4025,-18.175 5.32625,0 4.45375,18.175 2.7125,-18.175 5.53,0 -5.06875,34.55875 z"
           inkscape:connector-curvature="0" />
        <path
           id="path4592"
           style="fill:#000000;fill-opacity:1;fill-rule:nonzero;stroke:none"
           d="m 177.07861,44.61949 -3.5325,9.7275 6.91125,0 -3.37875,-9.7275 z m 8.70375,24.985 -3.38,-9.67625 -10.80125,0 -3.38,9.67625 -5.83625,0 11.8775,-34.55875 5.47875,0 11.8775,34.55875 -5.83625,0 z"
           inkscape:connector-curvature="0" />
        <path
           id="path4594"
           style="fill:#000000;fill-opacity:1;fill-rule:nonzero;stroke:none"
           d="m 203.4985,54.55213 0,15.0525 -5.4775,0 0,-15.0525 -12.135,-19.50625 6.55375,0 8.2425,13.31125 8.3975,-13.31125 6.39875,0 -11.98,19.50625 z"
           inkscape:connector-curvature="0" />
      </g>
    </g>
    <path
       inkscape:connector-curvature="0"
       d="m 365.95791,247.12271 c 0,0.87278 0.71405,1.58684 1.58684,1.58684 l 34.9105,0 c 0.87278,0 1.58684,-0.71406 1.58684,-1.58684 l 0,-9.52105 c 0,-0.87278 -0.71406,-1.58684 -1.58684,-1.58684 l -34.9105,0 c -0.87279,0 -1.58684,0.71406 -1.58684,1.58684 l 0,9.52105 z"
       style="fill:#ffffff;stroke:#000000;stroke-width:0.99999994;stroke-linecap:butt;stroke-linejoin:miter;stroke-miterlimit:4;stroke-opacity:1;stroke-dasharray:none"
       id="path4602" />
    <path
       inkscape:connector-curvature="0"
       d="m 366.48684,247.12271 c 0,0.5818 0.47604,1.05784 1.05785,1.05784 l 34.9105,0 c 0.58195,0 1.05799,-0.47604 1.05799,-1.05784 l 0,-9.52105 c 0,-0.5818 -0.47604,-1.05784 -1.05799,-1.05784 l -34.9105,0 c -0.58181,0 -1.05785,0.47604 -1.05785,1.05784 l 0,9.52105"
       style="fill:#000000;fill-opacity:1;fill-rule:nonzero;stroke:none"
       id="path4604" />
    <path
       inkscape:connector-curvature="0"
       d="m 400.8684,239.58522 -23.77383,0 0.46364,-1.48337 c 0.0237,-0.0752 0.0366,-0.15536 0.0366,-0.23832 0,-0.4367 -0.3542,-0.7909 -0.79089,-0.7909 -0.16838,0 -0.32435,0.0527 -0.45262,0.14236 l -8.27753,5.14716 8.27768,5.14733 c 0.12812,0.0895 0.28409,0.14219 0.45247,0.14219 0.43669,0 0.79089,-0.35419 0.79089,-0.79074 0,-0.0831 -0.0129,-0.16317 -0.0366,-0.23848 l -0.46364,-1.48336 23.77383,0 0,-5.55387"
       style="fill:#ffffff;fill-opacity:1;fill-rule:nonzero;stroke:none"
       id="path4606" />
    <g
       id="g4641"
       transform="matrix(-1,0,0,1,777.14084,0)">
      <path
         id="path4608"
         style="fill:#000000;fill-opacity:1;fill-rule:nonzero;stroke:none"
         d="m 397.99748,240.85437 c 0.37623,0 0.55165,0.15047 0.70211,0.52043 0.10041,0.25072 0.16302,0.63951 0.16302,0.99677 0,0.44512 -0.094,0.90278 -0.257,1.17249 -0.13164,0.21934 -0.30721,0.32588 -0.57676,0.32588 -0.31348,0 -0.50787,-0.16287 -0.65206,-0.53283 -0.0877,-0.22577 -0.16302,-0.63951 -0.16302,-0.96554 0,-0.48905 0.10669,-1.5172 0.78371,-1.5172 m -0.99065,3.22251 c 0.2446,0.31976 0.57691,0.4765 1.02202,0.4765 0.59559,0 0.95927,-0.23833 1.21627,-0.7586 0.17557,-0.35741 0.30093,-0.92161 0.30093,-1.42321 0,-0.70212 -0.17557,-1.32908 -0.46395,-1.72414 -0.2446,-0.33216 -0.59558,-0.47635 -1.08462,-0.47635 -1.17234,0 -1.45444,1.25377 -1.45444,2.20049 0,0.66461 0.16914,1.32907 0.46379,1.70531"
         inkscape:connector-curvature="0" />
      <path
         id="path4610"
         style="fill:#000000;fill-opacity:1;fill-rule:nonzero;stroke:none"
         d="m 393.72155,244.47813 1.61745,-2.8651 0,2.8651 0.67089,0 0,-4.23183 -0.67089,0 -1.5423,2.70208 0,-2.70208 -0.66446,0 0,4.23183 0.58931,0 z"
         inkscape:connector-curvature="0" />
      <path
         id="path4612"
         style="fill:#000000;fill-opacity:1;fill-rule:nonzero;stroke:none"
         d="m 392.51967,244.47813 0,-4.23183 -2.49529,0 0,0.67074 1.8244,0 0,1.03442 -1.22882,0 0,0.68344 1.22882,0 0,1.15979 -1.95604,0 0,0.68344 2.62693,0 z"
         inkscape:connector-curvature="0" />
      <path
         id="path4614"
         style="fill:#000000;fill-opacity:1;fill-rule:nonzero;stroke:none"
         d="m 384.64227,244.47813 0.59558,0 0.66461,-2.71464 0.65819,2.71464 0.58931,0 0.62696,-4.23183 -0.68345,0 -0.32587,2.22559 -0.5391,-2.22559 -0.65222,0 -0.54538,2.22559 -0.33215,-2.22559 -0.67717,0 0.62069,4.23183 z"
         inkscape:connector-curvature="0" />
      <path
         id="path4616"
         style="fill:#000000;fill-opacity:1;fill-rule:nonzero;stroke:none"
         d="m 382.29698,241.41865 0.43257,1.19116 -0.84631,0 0.41374,-1.19116 z m -1.0658,3.05949 0.41389,-1.18488 1.32265,0 0.41389,1.18488 0.71467,0 -1.45444,-4.23183 -0.67089,0 -1.45444,4.23183 0.71467,0 z"
         inkscape:connector-curvature="0" />
      <path
         id="path4618"
         style="fill:#000000;fill-opacity:1;fill-rule:nonzero;stroke:none"
         d="m 379.06178,242.63493 0,1.84323 0.67074,0 0,-1.84323 1.48597,-2.3886 -0.80253,0 -1.00932,1.63001 -1.0283,-1.63001 -0.78355,0 1.46699,2.3886 z"
         inkscape:connector-curvature="0" />
    </g>
  </g>
</svg>
